<?xml version="1.0" encoding="UTF-8"?>
<svg version="1.1" xmlns="http://www.w3.org/2000/svg" width="472" height="528">
<path d="M0 0 C0 0.66 0 1.32 0 2 C0.99 2.33 1.98 2.66 3 3 C3 3.66 3 4.32 3 5 C3.99 5.33 4.98 5.66 6 6 C6 6.66 6 7.32 6 8 C6.66 8 7.32 8 8 8 C12 14.75 12 14.75 12 17 C12.66 17 13.32 17 14 17 C14.33 18.98 14.66 20.96 15 23 C15.66 23 16.32 23 17 23 C17.61875 24.299375 17.61875 24.299375 18.25 25.625 C19.93806156 29.04956847 19.93806156 29.04956847 22.1875 32.1875 C24 35 24 35 24 38 C24.66 38 25.32 38 26 38 C26.33 39.98 26.66 41.96 27 44 C27.66 44 28.32 44 29 44 C29.33 45.98 29.66 47.96 30 50 C30.66 50 31.32 50 32 50 C36 56.625 36 56.625 36 60 C36.66 60 37.32 60 38 60 C38.33 61.65 38.66 63.3 39 65 C39.66 65 40.32 65 41 65 C41.33 66.98 41.66 68.96 42 71 C42.66 71 43.32 71 44 71 C44.67408308 72.26691507 45.33900497 73.53870749 46 74.8125 C46.37125 75.52019531 46.7425 76.22789062 47.125 76.95703125 C48 79 48 79 48 82 C48.66 82 49.32 82 50 82 C50.33 83.65 50.66 85.3 51 87 C51.66 87 52.32 87 53 87 C53.67119549 88.4562545 54.33681807 89.91507867 55 91.375 C55.37125 92.18710938 55.7425 92.99921875 56.125 93.8359375 C57 96 57 96 57 98 C57.66 98 58.32 98 59 98 C59.33 99.98 59.66 101.96 60 104 C60.66 104 61.32 104 62 104 C62.30292969 104.6290625 62.60585938 105.258125 62.91796875 105.90625 C65.37345958 110.92300664 67.94447248 115.68431483 71.08203125 120.30859375 C72 122 72 122 72 125 C72.66 125 73.32 125 74 125 C74.33 126.98 74.66 128.96 75 131 C75.66 131 76.32 131 77 131 C77.33 132.98 77.66 134.96 78 137 C78.66 137 79.32 137 80 137 C81.62109375 139.4140625 81.62109375 139.4140625 83.4375 142.625 C84.03433594 143.66914063 84.63117188 144.71328125 85.24609375 145.7890625 C90 154.4922049 90 154.4922049 90 158 C90.66 158 91.32 158 92 158 C92.33 159.98 92.66 161.96 93 164 C93.66 164 94.32 164 95 164 C96.18656093 166.13580968 97.37243008 168.27195925 98.5546875 170.41015625 C99.50496005 172.11294193 100.46818806 173.80857343 101.4453125 175.49609375 C102.12207031 176.67365234 102.12207031 176.67365234 102.8125 177.875 C103.23144531 178.59429687 103.65039062 179.31359375 104.08203125 180.0546875 C105 182 105 182 105 185 C105.66 185 106.32 185 107 185 C109.64518705 188.49847319 111.43893599 191.84995468 113.07421875 195.93359375 C114.71984925 199.60675213 116.79069056 203.05872127 118.79296875 206.546875 C120 209 120 209 120 212 C120.66 212 121.32 212 122 212 C122.4021875 212.83917969 122.4021875 212.83917969 122.8125 213.6953125 C125.7547728 219.71535751 128.96295837 225.52055025 132.40820312 231.26416016 C134.05961713 234.07489215 135 235.67847366 135 239 C135.66 239 136.32 239 137 239 C137.33 240.98 137.66 242.96 138 245 C138.66 245 139.32 245 140 245 C141.7265625 247.51953125 141.7265625 247.51953125 143.625 250.8125 C144.57246094 252.43091797 144.57246094 252.43091797 145.5390625 254.08203125 C147 257 147 257 147 260 C147.66 260 148.32 260 149 260 C149.33 261.98 149.66 263.96 150 266 C150.66 266 151.32 266 152 266 C152.41894531 266.86238281 152.83789062 267.72476562 153.26953125 268.61328125 C155.49643379 272.97157584 158.03398314 277.11183561 160.57421875 281.29296875 C162 284 162 284 162 287 C162.66 287 163.32 287 164 287 C164.33 288.98 164.66 290.96 165 293 C165.66 293 166.32 293 167 293 C167.30292969 293.6290625 167.60585938 294.258125 167.91796875 294.90625 C170.37345958 299.92300664 172.94447248 304.68431483 176.08203125 309.30859375 C177 311 177 311 177 314 C177.66 314 178.32 314 179 314 C179.33 315.98 179.66 317.96 180 320 C180.66 320 181.32 320 182 320 C185.37084299 330.73452976 186.45291533 339.38996718 182 350 C180.51953125 352.29296875 180.51953125 352.29296875 179 354 C178.34 354 177.68 354 177 354 C176.67 354.99 176.34 355.98 176 357 C175.34 357 174.68 357 174 357 C174 357.66 174 358.32 174 359 C167.84060571 362.57365676 163.43305326 363.57225389 156.37109375 363.45410156 C155.44333633 363.45468567 154.51557892 363.45526978 153.55970764 363.45587158 C150.51858003 363.45310339 147.47845462 363.42207132 144.4375 363.390625 C142.31901586 363.38315811 140.20052478 363.3774673 138.08203125 363.37347412 C132.52525528 363.35825313 126.96890219 363.31900162 121.41229248 363.2746582 C115.73455525 363.23362925 110.05674922 363.21544683 104.37890625 363.1953125 C93.25241909 363.15250407 82.12624481 363.08429553 71 363 C70.39164307 361.86220093 70.39164307 361.86220093 69.77099609 360.70141602 C69.23555176 359.70811279 68.70010742 358.71480957 68.1484375 357.69140625 C67.61911621 356.70599854 67.08979492 355.72059082 66.54443359 354.70532227 C64.93909835 351.89332102 63.07791405 349.4775129 61 347 C61 346.34 61 345.68 61 345 C60.34 345 59.68 345 59 345 C59 344.01 59 343.02 59 342 C58.01 341.67 57.02 341.34 56 341 C56 340.34 56 339.68 56 339 C55.195625 338.6596875 55.195625 338.6596875 54.375 338.3125 C51.17539839 336.54429911 48.70962777 334.46329797 46 332 C46 331.34 46 330.68 46 330 C45.4225 329.71125 44.845 329.4225 44.25 329.125 C42.16666667 328.08333333 40.08333333 327.04166667 38 326 C38 325.34 38 324.68 38 324 C37.27425781 323.88398438 36.54851562 323.76796875 35.80078125 323.6484375 C32.9308517 322.98399077 30.77968119 322.00693828 28.1875 320.625 C23.86262348 318.39176763 19.58325415 316.63132775 15 315 C13.85724609 314.49726562 13.85724609 314.49726562 12.69140625 313.984375 C9.54716843 312.834378 6.56549322 312.38381639 3.25 311.9375 C-2.89623865 311.10376135 -2.89623865 311.10376135 -4 310 C-7.7221654 309.74610932 -11.45771037 309.8147646 -15.1875 309.8125 C-16.22970703 309.80025391 -17.27191406 309.78800781 -18.34570312 309.77539062 C-23.67345961 309.76522961 -27.99727438 309.97249785 -33 312 C-35.16015625 312.34375 -35.16015625 312.34375 -37.0625 312.5 C-40.51267788 312.93811783 -42.83542482 313.71706412 -46 315 C-48.8125 315.125 -48.8125 315.125 -51 315 C-51 315.66 -51 316.32 -51 317 C-52.175625 317.4125 -53.35125 317.825 -54.5625 318.25 C-57.49691035 319.33739674 -60.13049997 320.57715383 -62.8125 322.1875 C-66 324 -66 324 -69 324 C-69 324.66 -69 325.32 -69 326 C-70.86328125 327.47265625 -70.86328125 327.47265625 -73.3125 329.0625 C-74.11300781 329.58972656 -74.91351563 330.11695313 -75.73828125 330.66015625 C-78 332 -78 332 -81 333 C-81.33 333.99 -81.66 334.98 -82 336 C-83.64639965 337.35827971 -85.31295807 338.69254251 -87 340 C-87.33 340.66 -87.66 341.32 -88 342 C-88.66 342 -89.32 342 -90 342 C-90.33 342.99 -90.66 343.98 -91 345 C-91.66 345 -92.32 345 -93 345 C-93.66 346.98 -94.32 348.96 -95 351 C-95.66 351 -96.32 351 -97 351 C-97.2475 351.680625 -97.495 352.36125 -97.75 353.0625 C-99.24107978 356.56653748 -101.09056284 359.70505661 -103 363 C-115.08322132 363.1393355 -127.1662499 363.24579141 -139.25011253 363.31087303 C-144.86185564 363.34211729 -150.47304702 363.38446435 -156.08447266 363.45263672 C-161.50507617 363.51807486 -166.92515074 363.55375793 -172.34611893 363.56926346 C-174.40892482 363.58030593 -176.47170344 363.60186945 -178.53428268 363.63438034 C-199.49725594 363.95150898 -199.49725594 363.95150898 -207 357 C-208.97389676 355.06965153 -210.39296508 353.28880731 -212 351 C-212.556875 350.2575 -213.11375 349.515 -213.6875 348.75 C-216.4481755 342.96572753 -217.4899287 337.2439775 -216 331 C-215.88140625 330.20980469 -215.7628125 329.41960937 -215.640625 328.60546875 C-214.7753266 323.24927165 -213.37924631 319.42568454 -210.30859375 314.9609375 C-208.20156418 311.80353797 -206.64679161 308.41556778 -205 305 C-204.34 305 -203.68 305 -203 305 C-202.67 303.02 -202.34 301.04 -202 299 C-201.34 299 -200.68 299 -200 299 C-199.91363281 298.47792969 -199.82726562 297.95585937 -199.73828125 297.41796875 C-198.72300753 294.09281303 -196.95772996 291.2785938 -195.1875 288.3125 C-192.07584017 282.99906301 -189.35843398 277.69954879 -187 272 C-186.34 272 -185.68 272 -185 272 C-184.67 270.35 -184.34 268.7 -184 267 C-183.34 267 -182.68 267 -182 267 C-181.89816406 266.29488281 -181.79632813 265.58976562 -181.69140625 264.86328125 C-180.90085188 261.58940355 -179.59476266 259.11415533 -177.9375 256.1875 C-177.11572266 254.72376953 -177.11572266 254.72376953 -176.27734375 253.23046875 C-175.85582031 252.49441406 -175.43429688 251.75835937 -175 251 C-174.34 251 -173.68 251 -173 251 C-172.505 248.03 -172.505 248.03 -172 245 C-171.34 245 -170.68 245 -170 245 C-169.67 243.35 -169.34 241.7 -169 240 C-168.34 240 -167.68 240 -167 240 C-166.8865625 239.27167969 -166.773125 238.54335938 -166.65625 237.79296875 C-165.97814458 234.90698439 -164.98946356 232.86277336 -163.5 230.3125 C-162.83484375 229.16201172 -162.83484375 229.16201172 -162.15625 227.98828125 C-161.7746875 227.33214844 -161.393125 226.67601562 -161 226 C-160.67 225.34 -160.34 224.68 -160 224 C-159.34 224 -158.68 224 -158 224 C-157.505 221.03 -157.505 221.03 -157 218 C-156.34 218 -155.68 218 -155 218 C-154.67 216.35 -154.34 214.7 -154 213 C-153.34 213 -152.68 213 -152 213 C-151.9175 212.32195312 -151.835 211.64390625 -151.75 210.9453125 C-150.79550641 207.19693663 -148.97611132 204.15700307 -147 200.875 C-144.1363134 196.11589003 -144.1363134 196.11589003 -142 191 C-141.34 191 -140.68 191 -140 191 C-139.89042969 190.26910156 -139.78085938 189.53820312 -139.66796875 188.78515625 C-138.96090494 185.83698962 -137.9482978 183.97491864 -136.3125 181.4375 C-132.8090044 175.81324435 -129.88730092 169.95889764 -127 164 C-126.34 164 -125.68 164 -125 164 C-124.67 162.35 -124.34 160.7 -124 159 C-123.34 159 -122.68 159 -122 159 C-121.896875 158.29875 -121.79375 157.5975 -121.6875 156.875 C-120.90640997 153.60862353 -119.57941257 150.9528148 -118 148 C-117.34 148 -116.68 148 -116 148 C-115.71125 147.113125 -115.4225 146.22625 -115.125 145.3125 C-114.16851252 142.49617576 -113.13201054 139.74916844 -112 137 C-111.34 137 -110.68 137 -110 137 C-109.9175 136.31164062 -109.835 135.62328125 -109.75 134.9140625 C-108.81598402 131.28502123 -107.02445521 128.47538944 -105 125.375 C-102.09316341 120.89917129 -102.09316341 120.89917129 -100 116 C-99.34 116 -98.68 116 -98 116 C-97.67 114.02 -97.34 112.04 -97 110 C-96.34 110 -95.68 110 -95 110 C-94.896875 109.29875 -94.79375 108.5975 -94.6875 107.875 C-93.90640997 104.60862353 -92.57941257 101.9528148 -91 99 C-90.34 99 -89.68 99 -89 99 C-88.938125 98.34 -88.87625 97.68 -88.8125 97 C-87.84813391 93.43926366 -86.19399447 90.91195685 -84.15625 87.8671875 C-82.83827223 85.89916091 -82.83827223 85.89916091 -82 83 C-81.34 83 -80.68 83 -80 83 C-79.67 81.02 -79.34 79.04 -79 77 C-78.34 77 -77.68 77 -77 77 C-76.72414062 76.28457031 -76.44828125 75.56914062 -76.1640625 74.83203125 C-75.01751478 72.04261145 -73.73772885 69.37709642 -72.375 66.6875 C-71.70597656 65.36298828 -71.70597656 65.36298828 -71.0234375 64.01171875 C-70.68570313 63.34785156 -70.34796875 62.68398437 -70 62 C-69.34 62 -68.68 62 -68 62 C-67.67 60.02 -67.34 58.04 -67 56 C-66.34 56 -65.68 56 -65 56 C-64.88011719 55.26136719 -64.76023438 54.52273437 -64.63671875 53.76171875 C-64.01271339 51.05514336 -63.19726482 49.20110728 -61.8125 46.8125 C-61.14347656 45.64654297 -61.14347656 45.64654297 -60.4609375 44.45703125 C-58.97479825 41.95761524 -57.45675554 39.47939419 -55.9375 37 C-53.20286043 32.49173115 -51.00119445 27.87349708 -49 23 C-48.34 23 -47.68 23 -47 23 C-46.82984375 22.15308594 -46.82984375 22.15308594 -46.65625 21.2890625 C-45.91959139 18.71952712 -44.8316173 16.68984636 -43.5 14.375 C-43.0565625 13.59898438 -42.613125 12.82296875 -42.15625 12.0234375 C-41.58390625 11.02183594 -41.58390625 11.02183594 -41 10 C-40.67 9.34 -40.34 8.68 -40 8 C-39.34 8 -38.68 8 -38 8 C-37.67 7.01 -37.34 6.02 -37 5 C-36.34 5 -35.68 5 -35 5 C-34.67 4.01 -34.34 3.02 -34 2 C-33.34 2 -32.68 2 -32 2 C-32 1.34 -32 0.68 -32 0 C-20.5552145 -4.53844942 -11.43325917 -4.8697215 0 0 Z M-53.9375 140.625 C-56.32920431 144.53869797 -56.58412636 146.49388236 -56 151 C-54.9179358 153.99648547 -53.51425092 156.04348353 -51 158 C-48.06828601 158.47107031 -48.06828601 158.47107031 -44.68017578 158.41992188 C-43.3751712 158.43583374 -42.07016663 158.45174561 -40.72561646 158.46813965 C-39.29884902 158.469407 -37.87208026 158.46958371 -36.4453125 158.46875 C-34.98183906 158.47585114 -33.51836841 158.48355007 -32.05490112 158.49182129 C-28.98655462 158.50527255 -25.91846541 158.50683256 -22.85009766 158.50097656 C-18.92331062 158.49508567 -14.99776224 158.52564139 -11.07121468 158.56609344 C-8.04793683 158.591983 -5.02495651 158.5948467 -2.0015831 158.59120178 C-0.55431892 158.59289251 0.89295908 158.60253077 2.34011459 158.62034607 C4.36708442 158.64254931 6.39434633 158.62961883 8.42138672 158.61523438 C9.57371796 158.61728882 10.72604919 158.61934326 11.91329956 158.62145996 C15.93311555 157.81213144 17.41696902 156.10557308 20 153 C21.57455739 149.85088521 21.34799118 147.47991184 21 144 C18.19610411 139.52427872 18.19610411 139.52427872 13.57983398 137.34423828 C8.3333484 136.83973411 3.11542548 136.85773648 -2.15234375 136.8671875 C-3.32583878 136.86623077 -4.4993338 136.86527405 -5.70838928 136.86428833 C-8.18539483 136.86360908 -10.66240218 136.8654456 -13.1394043 136.86962891 C-16.92045107 136.87497589 -20.70137881 136.86967771 -24.48242188 136.86328125 C-26.89322943 136.86394217 -29.30403691 136.86522362 -31.71484375 136.8671875 C-32.84107651 136.86516327 -33.96730927 136.86313904 -35.12767029 136.86105347 C-45.28265876 136.41165729 -45.28265876 136.41165729 -53.9375 140.625 Z M-18 167 C-18.33 167.99 -18.66 168.98 -19 170 C-19.99 170.33 -20.98 170.66 -22 171 C-22 171.99 -22 172.98 -22 174 C-22.66 174 -23.32 174 -24 174 C-26.96235695 177.63323689 -26.96235695 177.63323689 -28 182 C-28.99 182.33 -29.98 182.66 -31 183 C-33.40995366 185.63541018 -33.40995366 185.63541018 -34 189 C-34.66 189 -35.32 189 -36 189 C-38.96235695 192.63323689 -38.96235695 192.63323689 -40 197 C-40.99 197.33 -41.98 197.66 -43 198 C-43 198.99 -43 199.98 -43 201 C-43.66 201 -44.32 201 -45 201 C-46.79539556 203.0897227 -48.47061442 205.17842082 -50.125 207.375 C-50.59292969 207.97828125 -51.06085938 208.5815625 -51.54296875 209.203125 C-54.13614239 212.25734941 -54.13614239 212.25734941 -55 216 C-55.66 216 -56.32 216 -57 216 C-59.41632508 218.53909546 -59.41632508 218.53909546 -61 222 C-60.32021842 227.53536429 -58.26260479 230.48335105 -54 234 C-53.34 234 -52.68 234 -52 234 C-52 234.66 -52 235.32 -52 236 C-48.31327864 237.17521526 -44.87779668 237.08315633 -41.02832031 237.02172852 C-40.3352327 237.01212097 -39.64214508 237.00251343 -38.92805481 236.99261475 C-36.64463842 236.95971996 -34.36141908 236.91935174 -32.078125 236.87890625 C-30.49201139 236.85459581 -28.90589056 236.83075272 -27.31976318 236.80735779 C-23.15057121 236.74460874 -18.9815076 236.67551622 -14.81243896 236.60510254 C-10.55600822 236.53433607 -6.29948667 236.46956889 -2.04296875 236.40429688 C6.30478808 236.27540289 14.65241884 236.13980733 23 236 C23 235.34 23 234.68 23 234 C23.99 233.67 24.98 233.34 26 233 C29.60407669 228.99547034 29.51541229 224.66699027 29.3359375 219.53125 C29.14378719 216.88572387 29.14378719 216.88572387 27.5625 214.4375 C23.86633903 212.36404385 20.14566099 211.70609066 16 211 C15.28585937 210.82082031 14.57171875 210.64164063 13.8359375 210.45703125 C9.58167362 209.77142674 5.36409331 209.85620207 1.0625 209.875 C0.18142578 209.87113281 -0.69964844 209.86726563 -1.60742188 209.86328125 C-6.18542071 209.87013968 -10.49611775 210.06509199 -15 211 C-15.59732819 208.23735711 -16 205.83967231 -16 203 C-15.34 203 -14.68 203 -14 203 C-14 202.01 -14 201.02 -14 200 C-13.01 199.67 -12.02 199.34 -11 199 C-10.26676204 196.98491642 -10.26676204 196.98491642 -10 195 C-9.34 195 -8.68 195 -8 195 C-7.67 193.68 -7.34 192.36 -7 191 C-6.34 191 -5.68 191 -5 191 C-4.67 189.68 -4.34 188.36 -4 187 C-3.34 187 -2.68 187 -2 187 C-1.67 185.68 -1.34 184.36 -1 183 C-0.34 183 0.32 183 1 183 C1.33 181.68 1.66 180.36 2 179 C2.66 179 3.32 179 4 179 C4 178.01 4 177.02 4 176 C4.99 175.67 5.98 175.34 7 175 C8.32 172.36 9.64 169.72 11 167 C1.43 167 -8.14 167 -18 167 Z " fill="#FDFEFE" transform="translate(252,77)"/>
<path d="M0 0 C0 0.66 0 1.32 0 2 C0.99 2.33 1.98 2.66 3 3 C3 3.66 3 4.32 3 5 C3.99 5.33 4.98 5.66 6 6 C6 6.66 6 7.32 6 8 C6.66 8 7.32 8 8 8 C12 14.75 12 14.75 12 17 C12.66 17 13.32 17 14 17 C14.33 18.98 14.66 20.96 15 23 C15.66 23 16.32 23 17 23 C17.61875 24.299375 17.61875 24.299375 18.25 25.625 C19.93806156 29.04956847 19.93806156 29.04956847 22.1875 32.1875 C24 35 24 35 24 38 C24.66 38 25.32 38 26 38 C26.33 39.98 26.66 41.96 27 44 C27.66 44 28.32 44 29 44 C29.33 45.98 29.66 47.96 30 50 C30.66 50 31.32 50 32 50 C36 56.625 36 56.625 36 60 C36.66 60 37.32 60 38 60 C38.33 61.65 38.66 63.3 39 65 C39.66 65 40.32 65 41 65 C41.33 66.98 41.66 68.96 42 71 C42.66 71 43.32 71 44 71 C44.67408308 72.26691507 45.33900497 73.53870749 46 74.8125 C46.37125 75.52019531 46.7425 76.22789062 47.125 76.95703125 C48 79 48 79 48 82 C48.66 82 49.32 82 50 82 C50.33 83.65 50.66 85.3 51 87 C51.66 87 52.32 87 53 87 C53.67119549 88.4562545 54.33681807 89.91507867 55 91.375 C55.37125 92.18710938 55.7425 92.99921875 56.125 93.8359375 C57 96 57 96 57 98 C57.66 98 58.32 98 59 98 C59.33 99.98 59.66 101.96 60 104 C60.66 104 61.32 104 62 104 C62.30292969 104.6290625 62.60585938 105.258125 62.91796875 105.90625 C65.37345958 110.92300664 67.94447248 115.68431483 71.08203125 120.30859375 C72 122 72 122 72 125 C72.66 125 73.32 125 74 125 C74.33 126.98 74.66 128.96 75 131 C75.66 131 76.32 131 77 131 C77.33 132.98 77.66 134.96 78 137 C78.66 137 79.32 137 80 137 C81.62109375 139.4140625 81.62109375 139.4140625 83.4375 142.625 C84.03433594 143.66914063 84.63117188 144.71328125 85.24609375 145.7890625 C90 154.4922049 90 154.4922049 90 158 C90.66 158 91.32 158 92 158 C92.33 159.98 92.66 161.96 93 164 C93.66 164 94.32 164 95 164 C96.18656093 166.13580968 97.37243008 168.27195925 98.5546875 170.41015625 C99.50496005 172.11294193 100.46818806 173.80857343 101.4453125 175.49609375 C102.12207031 176.67365234 102.12207031 176.67365234 102.8125 177.875 C103.23144531 178.59429687 103.65039062 179.31359375 104.08203125 180.0546875 C105 182 105 182 105 185 C105.66 185 106.32 185 107 185 C109.64518705 188.49847319 111.43893599 191.84995468 113.07421875 195.93359375 C114.71984925 199.60675213 116.79069056 203.05872127 118.79296875 206.546875 C120 209 120 209 120 212 C120.66 212 121.32 212 122 212 C122.4021875 212.83917969 122.4021875 212.83917969 122.8125 213.6953125 C125.7547728 219.71535751 128.96295837 225.52055025 132.40820312 231.26416016 C134.05961713 234.07489215 135 235.67847366 135 239 C135.66 239 136.32 239 137 239 C137.33 240.98 137.66 242.96 138 245 C138.66 245 139.32 245 140 245 C141.7265625 247.51953125 141.7265625 247.51953125 143.625 250.8125 C144.57246094 252.43091797 144.57246094 252.43091797 145.5390625 254.08203125 C147 257 147 257 147 260 C147.66 260 148.32 260 149 260 C149.33 261.98 149.66 263.96 150 266 C150.66 266 151.32 266 152 266 C152.41894531 266.86238281 152.83789062 267.72476562 153.26953125 268.61328125 C155.49643379 272.97157584 158.03398314 277.11183561 160.57421875 281.29296875 C162 284 162 284 162 287 C162.66 287 163.32 287 164 287 C166 295 166 295 166.3359375 296.86328125 C167.30674923 299.98701076 169.01644244 302.64880708 170.6875 305.4375 C181 323.04534647 181 323.04534647 181 328 C178 327 178 327 176.8671875 324.8203125 C176.53976562 323.93085938 176.21234375 323.04140625 175.875 322.125 C175.54242188 321.24070312 175.20984375 320.35640625 174.8671875 319.4453125 C174.22583675 317.63681895 173.60679319 315.82037956 173 314 C172.01 313.67 171.02 313.34 170 313 C170 311.68 170 310.36 170 309 C169.34 309 168.68 309 168 309 C166.74335022 306.09399739 166 304.20395416 166 301 C165.01 300.67 164.02 300.34 163 300 C162.6278958 298.67696283 162.29369827 297.34262065 162 296 C161.34 295.67 160.68 295.34 160 295 C160 294.01 160 293.02 160 292 C159.01 292 158.02 292 157 292 C155.05194805 285.24675325 155.05194805 285.24675325 154.5 282.625 C154.335 282.08875 154.17 281.5525 154 281 C153.34 280.67 152.68 280.34 152 280 C151.33333333 278 150.66666667 276 150 274 C149.34 273.67 148.68 273.34 148 273 C147.66666667 271.66666667 147.33333333 270.33333333 147 269 C146.34 268.67 145.68 268.34 145 268 C144.21875 266.22265625 144.21875 266.22265625 143.5 264.0625 C142.57597536 261.29544796 142.10862631 260.10862631 140 258 C140 256.68 140 255.36 140 254 C139.01 253.67 138.02 253.34 137 253 C135.5522078 250.10441559 135 248.25811062 135 245 C134.34 245 133.68 245 133 245 C133 243.68 133 242.36 133 241 C132.01 241 131.02 241 130 241 C129.34 238.36 128.68 235.72 128 233 C127.34 233 126.68 233 126 233 C123.38240112 229.4826015 121.5450589 226.08336996 120 222 C119.34 221.01 118.68 220.02 118 219 C118 217.68 118 216.36 118 215 C117.01 214.67 116.02 214.34 115 214 C114.896875 213.236875 114.79375 212.47375 114.6875 211.6875 C114.23930177 208.98440058 114.23930177 208.98440058 112.5 207.5 C110.50098925 205.50098925 110.37109019 203.74606742 110 201 C109.34 201 108.68 201 108 201 C105 194.5 105 194.5 105 190 C104.01 189.67 103.02 189.34 102 189 C98.88381885 185.04235747 96.85899774 180.64749436 95 176 C94.525625 175.54625 94.05125 175.0925 93.5625 174.625 C91.17851158 172.14565204 90.28712945 169.16419322 89 166 C87.31881097 161.73506689 87.31881097 161.73506689 84 159 C83.3671875 156.93359375 83.3671875 156.93359375 82.875 154.4375 C82.70742188 153.61121094 82.53984375 152.78492188 82.3671875 151.93359375 C82.24601562 151.29550781 82.12484375 150.65742188 82 150 C81.34 150 80.68 150 80 150 C79.62488281 149.31035156 79.24976563 148.62070313 78.86328125 147.91015625 C78.35152344 146.97042969 77.83976562 146.03070313 77.3125 145.0625 C76.76980469 144.06476563 76.22710937 143.06703125 75.66796875 142.0390625 C73.77829525 138.59605083 71.8406443 135.18200093 69.8828125 131.77734375 C69 130 69 130 69 128 C68.34 128 67.68 128 67 128 C67 126.35 67 124.7 67 123 C66.34 123 65.68 123 65 123 C64.58878906 121.99582031 64.17757813 120.99164063 63.75390625 119.95703125 C62.07380407 116.03942365 60.07133945 112.37322269 57.9375 108.6875 C57.58623047 108.06810547 57.23496094 107.44871094 56.87304688 106.81054688 C55.41176127 104.26641825 54.08407976 102.08407976 52 100 C52 99.01 52 98.02 52 97 C51.01 97 50.02 97 49 97 C48.9175 95.948125 48.835 94.89625 48.75 93.8125 C47.91610505 89.57353399 46.75374923 88.22582053 44 85 C42.09363462 81.63461129 40.45067517 78.17175545 39.0625 74.5625 C35.83255092 66.76086164 35.83255092 66.76086164 30 61 C29.12109375 59.125 29.12109375 59.125 28.4375 57 C27.53744405 54.23372636 27.10771027 53.10771027 25 51 C25 49.68 25 48.36 25 47 C24.01 46.67 23.02 46.34 22 46 C21.29427304 43.95339181 20.9904128 41.94407466 20.625 39.8125 C20.41875 39.214375 20.2125 38.61625 20 38 C19.01 37.67 18.02 37.34 17 37 C16.23280705 35.36554545 15.47800448 33.72294331 14.81640625 32.04296875 C13.95917313 29.89783515 13.00993571 27.82747232 12 25.75 C11.690625 25.10546875 11.38125 24.4609375 11.0625 23.796875 C10.07017469 21.91889976 10.07017469 21.91889976 8.375 20.515625 C7 19 7 19 7 15 C6.01 14.67 5.02 14.34 4 14 C4 13.01 4 12.02 4 11 C3.34 11 2.68 11 2 11 C1.195625 9.576875 1.195625 9.576875 0.375 8.125 C-2.13298064 4.82502548 -3.54777806 3.97961709 -7.5859375 3.24609375 C-16.65880881 2.32118939 -23.0574209 2.29864001 -30.59765625 7.9453125 C-38.58681797 15.01021304 -42.44234077 21.89679064 -46.0078125 31.8359375 C-47.04988446 34.10880311 -48.22355113 35.28195493 -50 37 C-50.72197162 39.60611077 -50.72197162 39.60611077 -51 42 C-51.99 42 -52.98 42 -54 42 C-54.12632812 42.55300781 -54.25265625 43.10601562 -54.3828125 43.67578125 C-55.06694442 46.25210082 -55.92573736 48.69660541 -56.875 51.1875 C-57.36613281 52.50814453 -57.36613281 52.50814453 -57.8671875 53.85546875 C-59 56 -59 56 -62 57 C-62.33 59.31 -62.66 61.62 -63 64 C-63.99 64 -64.98 64 -66 64 C-66.0825 64.53625 -66.165 65.0725 -66.25 65.625 C-67 68 -67 68 -68.9375 70.75 C-71.36211809 74.57061033 -72.08915501 77.59758256 -73 82 C-73.99 82 -74.98 82 -76 82 C-76.1546875 82.7734375 -76.1546875 82.7734375 -76.3125 83.5625 C-77.58186476 88.06297506 -79.40966154 92.11449231 -82 96 C-82.66 96 -83.32 96 -84 96 C-84.12246094 96.55171875 -84.24492187 97.1034375 -84.37109375 97.671875 C-85.07993611 100.29591255 -86.03611256 102.7336953 -87.0625 105.25 C-87.42472656 106.14203125 -87.78695312 107.0340625 -88.16015625 107.953125 C-88.43730469 108.62859375 -88.71445313 109.3040625 -89 110 C-89.66 110 -90.32 110 -91 110 C-90.92910156 110.74121094 -90.85820312 111.48242188 -90.78515625 112.24609375 C-91.05400838 115.69228924 -92.04157318 116.63764851 -94.4375 119.0625 C-97.06241554 121.74044413 -98.19448444 123.36344915 -99 127 C-99.66 127.33 -100.32 127.66 -101 128 C-102.06261379 129.88267444 -103.05219228 131.80699417 -104 133.75 C-104.7734375 135.32007813 -104.7734375 135.32007813 -105.5625 136.921875 C-107.01392894 139.92618709 -107.01392894 139.92618709 -108.0625 142.828125 C-109 145 -109 145 -111 146 C-111.89774655 148.14078024 -112.72043396 150.31341232 -113.5 152.5 C-115.77777778 158.88888889 -115.77777778 158.88888889 -118 160 C-118.65213292 162.02463255 -118.65213292 162.02463255 -119 164 C-119.66 164 -120.32 164 -121 164 C-121.0825 164.94875 -121.165 165.8975 -121.25 166.875 C-121.62125 168.421875 -121.62125 168.421875 -122 170 C-123.9375 171.0625 -123.9375 171.0625 -126 172 C-126.70784001 173.64960139 -127.36447498 175.32121169 -128 177 C-129.45134659 179.95746099 -130.93538214 182.89438845 -132.43359375 185.828125 C-134.12446265 189.16632111 -135.67425896 192.50004365 -137 196 C-137.66 196 -138.32 196 -139 196 C-139.103125 196.721875 -139.20625 197.44375 -139.3125 198.1875 C-140.06351998 201.25985448 -141.35134849 203.32094129 -143 206 C-143.35169068 207.32860925 -143.68770276 208.66158328 -144 210 C-144.66 210.99 -145.32 211.98 -146 213 C-146.99 213 -147.98 213 -149 213 C-149.10957031 213.63808594 -149.21914062 214.27617187 -149.33203125 214.93359375 C-149.56986328 216.17302734 -149.56986328 216.17302734 -149.8125 217.4375 C-150.03873047 218.67306641 -150.03873047 218.67306641 -150.26953125 219.93359375 C-150.51058594 220.61550781 -150.75164062 221.29742187 -151 222 C-151.99 222.33 -152.98 222.66 -154 223 C-154.61067144 224.85744207 -154.61067144 224.85744207 -155 227 C-155.63654342 228.3479743 -156.29605388 229.68596724 -157 231 C-157.66 231 -158.32 231 -159 231 C-159 232.65 -159 234.3 -159 236 C-159.99 236 -160.98 236 -162 236 C-162.0825 236.639375 -162.165 237.27875 -162.25 237.9375 C-163.71086858 243.90271336 -166.44209873 249.98659366 -170 255 C-170.66 255 -171.32 255 -172 255 C-172.185625 255.86625 -172.185625 255.86625 -172.375 256.75 C-173.00648824 259.02335767 -173.88858191 260.9253529 -175 263 C-175.66 263 -176.32 263 -177 263 C-177.0825 263.639375 -177.165 264.27875 -177.25 264.9375 C-178.80852947 271.30149532 -182.02242226 277.19372341 -185 283 C-185.66 283 -186.32 283 -187 283 C-187.226875 283.66 -187.45375 284.32 -187.6875 285 C-188.80168998 287.54671995 -189.98086974 289.57165796 -191.5 291.875 C-193.23481244 294.54823437 -194.37456509 296.8403661 -195.125 299.9375 C-195.41375 300.948125 -195.7025 301.95875 -196 303 C-196.99 303.33 -197.98 303.66 -199 304 C-199 305.65 -199 307.3 -199 309 C-199.99 309 -200.98 309 -202 309 C-202.185625 309.8353125 -202.185625 309.8353125 -202.375 310.6875 C-203.41539673 314.53696789 -204.53879075 317.42698245 -207.0625 320.5625 C-210.46478752 324.8427972 -210.1361309 328.81683916 -210.125 334.1875 C-210.12757813 335.43917969 -210.13015625 336.69085938 -210.1328125 337.98046875 C-210.345842 340.87927536 -210.345842 340.87927536 -209 342 C-208.95936168 343.66617115 -208.957279 345.33388095 -209 347 C-208.34 347 -207.68 347 -207 347 C-202 352.47619048 -202 352.47619048 -202 355 C-199.03 355.66 -196.06 356.32 -193 357 C-193 357.99 -193 358.98 -193 360 C-196 362 -196 362 -197.75 361.875 C-204.16956539 359.37850235 -207.97388728 356.47998676 -212 351 C-212.556875 350.2575 -213.11375 349.515 -213.6875 348.75 C-216.4481755 342.96572753 -217.4899287 337.2439775 -216 331 C-215.88140625 330.20980469 -215.7628125 329.41960937 -215.640625 328.60546875 C-214.7753266 323.24927165 -213.37924631 319.42568454 -210.30859375 314.9609375 C-208.20156418 311.80353797 -206.64679161 308.41556778 -205 305 C-204.34 305 -203.68 305 -203 305 C-202.67 303.02 -202.34 301.04 -202 299 C-201.34 299 -200.68 299 -200 299 C-199.91363281 298.47792969 -199.82726562 297.95585937 -199.73828125 297.41796875 C-198.72300753 294.09281303 -196.95772996 291.2785938 -195.1875 288.3125 C-192.07584017 282.99906301 -189.35843398 277.69954879 -187 272 C-186.34 272 -185.68 272 -185 272 C-184.67 270.35 -184.34 268.7 -184 267 C-183.34 267 -182.68 267 -182 267 C-181.89816406 266.29488281 -181.79632813 265.58976562 -181.69140625 264.86328125 C-180.90085188 261.58940355 -179.59476266 259.11415533 -177.9375 256.1875 C-177.11572266 254.72376953 -177.11572266 254.72376953 -176.27734375 253.23046875 C-175.85582031 252.49441406 -175.43429688 251.75835937 -175 251 C-174.34 251 -173.68 251 -173 251 C-172.505 248.03 -172.505 248.03 -172 245 C-171.34 245 -170.68 245 -170 245 C-169.67 243.35 -169.34 241.7 -169 240 C-168.34 240 -167.68 240 -167 240 C-166.8865625 239.27167969 -166.773125 238.54335938 -166.65625 237.79296875 C-165.97814458 234.90698439 -164.98946356 232.86277336 -163.5 230.3125 C-162.83484375 229.16201172 -162.83484375 229.16201172 -162.15625 227.98828125 C-161.7746875 227.33214844 -161.393125 226.67601562 -161 226 C-160.67 225.34 -160.34 224.68 -160 224 C-159.34 224 -158.68 224 -158 224 C-157.505 221.03 -157.505 221.03 -157 218 C-156.34 218 -155.68 218 -155 218 C-154.67 216.35 -154.34 214.7 -154 213 C-153.34 213 -152.68 213 -152 213 C-151.9175 212.32195312 -151.835 211.64390625 -151.75 210.9453125 C-150.79550641 207.19693663 -148.97611132 204.15700307 -147 200.875 C-144.1363134 196.11589003 -144.1363134 196.11589003 -142 191 C-141.34 191 -140.68 191 -140 191 C-139.89042969 190.26910156 -139.78085938 189.53820312 -139.66796875 188.78515625 C-138.96090494 185.83698962 -137.9482978 183.97491864 -136.3125 181.4375 C-132.8090044 175.81324435 -129.88730092 169.95889764 -127 164 C-126.34 164 -125.68 164 -125 164 C-124.67 162.35 -124.34 160.7 -124 159 C-123.34 159 -122.68 159 -122 159 C-121.896875 158.29875 -121.79375 157.5975 -121.6875 156.875 C-120.90640997 153.60862353 -119.57941257 150.9528148 -118 148 C-117.34 148 -116.68 148 -116 148 C-115.71125 147.113125 -115.4225 146.22625 -115.125 145.3125 C-114.16851252 142.49617576 -113.13201054 139.74916844 -112 137 C-111.34 137 -110.68 137 -110 137 C-109.9175 136.31164062 -109.835 135.62328125 -109.75 134.9140625 C-108.81598402 131.28502123 -107.02445521 128.47538944 -105 125.375 C-102.09316341 120.89917129 -102.09316341 120.89917129 -100 116 C-99.34 116 -98.68 116 -98 116 C-97.67 114.02 -97.34 112.04 -97 110 C-96.34 110 -95.68 110 -95 110 C-94.896875 109.29875 -94.79375 108.5975 -94.6875 107.875 C-93.90640997 104.60862353 -92.57941257 101.9528148 -91 99 C-90.34 99 -89.68 99 -89 99 C-88.938125 98.34 -88.87625 97.68 -88.8125 97 C-87.84813391 93.43926366 -86.19399447 90.91195685 -84.15625 87.8671875 C-82.83827223 85.89916091 -82.83827223 85.89916091 -82 83 C-81.34 83 -80.68 83 -80 83 C-79.67 81.02 -79.34 79.04 -79 77 C-78.34 77 -77.68 77 -77 77 C-76.72414062 76.28457031 -76.44828125 75.56914062 -76.1640625 74.83203125 C-75.01751478 72.04261145 -73.73772885 69.37709642 -72.375 66.6875 C-71.70597656 65.36298828 -71.70597656 65.36298828 -71.0234375 64.01171875 C-70.68570313 63.34785156 -70.34796875 62.68398437 -70 62 C-69.34 62 -68.68 62 -68 62 C-67.67 60.02 -67.34 58.04 -67 56 C-66.34 56 -65.68 56 -65 56 C-64.88011719 55.26136719 -64.76023438 54.52273437 -64.63671875 53.76171875 C-64.01271339 51.05514336 -63.19726482 49.20110728 -61.8125 46.8125 C-61.14347656 45.64654297 -61.14347656 45.64654297 -60.4609375 44.45703125 C-58.97479825 41.95761524 -57.45675554 39.47939419 -55.9375 37 C-53.20286043 32.49173115 -51.00119445 27.87349708 -49 23 C-48.34 23 -47.68 23 -47 23 C-46.82984375 22.15308594 -46.82984375 22.15308594 -46.65625 21.2890625 C-45.91959139 18.71952712 -44.8316173 16.68984636 -43.5 14.375 C-43.0565625 13.59898438 -42.613125 12.82296875 -42.15625 12.0234375 C-41.58390625 11.02183594 -41.58390625 11.02183594 -41 10 C-40.67 9.34 -40.34 8.68 -40 8 C-39.34 8 -38.68 8 -38 8 C-37.67 7.01 -37.34 6.02 -37 5 C-36.34 5 -35.68 5 -35 5 C-34.67 4.01 -34.34 3.02 -34 2 C-33.34 2 -32.68 2 -32 2 C-32 1.34 -32 0.68 -32 0 C-20.5552145 -4.53844942 -11.43325917 -4.8697215 0 0 Z " fill="#E3EBF5" transform="translate(252,77)"/>
<path d="M0 0 C8.91011164 -0.04637315 17.82018163 -0.0818945 26.73038769 -0.10362434 C30.86790929 -0.11405441 35.00534823 -0.12819942 39.14282227 -0.15087891 C43.1369082 -0.17263501 47.13091469 -0.18457447 51.12505531 -0.18975449 C52.64765994 -0.19344527 54.1702603 -0.20065248 55.69283104 -0.21146011 C57.82811195 -0.22601195 59.96306603 -0.22797642 62.09838867 -0.22705078 C63.3130632 -0.231492 64.52773773 -0.23593323 65.77922058 -0.24050903 C70.00652895 0.07516171 72.88747946 0.81075391 75.8125 3.9375 C77 6 77 6 77 9 C77.99 9 78.98 9 80 9 C80.05399736 10.45792884 80.09279177 11.91642712 80.125 13.375 C80.14820313 14.18710938 80.17140625 14.99921875 80.1953125 15.8359375 C80 18 80 18 78 20 C77.731875 20.969375 77.46375 21.93875 77.1875 22.9375 C75.7739837 26.58288415 74.4609827 27.36058714 71 29 C71.495 31.475 71.495 31.475 72 34 C71.34 34 70.68 34 70 34 C70 34.99 70 35.98 70 37 C69.38125 37.45375 68.7625 37.9075 68.125 38.375 C65.5722991 40.32706539 64.97654793 41.98897721 64 45 C63.34 45 62.68 45 62 45 C62 45.66 62 46.32 62 47 C61.38125 47.5775 60.7625 48.155 60.125 48.75 C57.79416834 50.88851308 57.79416834 50.88851308 57.0625 54 C55.76387304 57.66671141 54.0605805 58.70456462 51 61 C49.68834743 63.11660427 49.68834743 63.11660427 49 65 C48.34 65 47.68 65 47 65 C47 65.99 47 66.98 47 68 C46.01 68 45.02 68 44 68 C44 69.32 44 70.64 44 72 C45.39907593 72.01401855 45.39907593 72.01401855 46.82641602 72.02832031 C50.31397103 72.07254616 53.80033354 72.1342517 57.28735352 72.20751953 C58.79147193 72.23560373 60.29573448 72.25688032 61.80004883 72.27099609 C63.97291184 72.29260229 66.14406475 72.33933432 68.31640625 72.390625 C69.62037354 72.41157227 70.92434082 72.43251953 72.26782227 72.45410156 C76.77219784 73.11294789 79.21357601 74.54000298 83 77 C83 77.66 83 78.32 83 79 C83.66 79 84.32 79 85 79 C88.05866442 82.93256854 88.33585796 85.91668732 88.1875 90.8125 C88.14689453 92.55466797 88.14689453 92.55466797 88.10546875 94.33203125 C88.07066406 95.21246094 88.03585937 96.09289062 88 97 C86.515 97.495 86.515 97.495 85 98 C85 99.32 85 100.64 85 102 C84.34 102 83.68 102 83 102 C82.505 103.485 82.505 103.485 82 105 C77.87139289 107.56547835 74.72599769 108.37162659 69.90283203 108.34057617 C68.72206085 108.34034958 67.54128967 108.34012299 66.32473755 108.33988953 C64.43535965 108.31666374 64.43535965 108.31666374 62.5078125 108.29296875 C61.20673553 108.28872391 59.90565857 108.28447906 58.56515503 108.28010559 C55.12254237 108.26870479 51.68031533 108.23927974 48.237854 108.20599365 C44.71851822 108.17518917 41.19911953 108.1615782 37.6796875 108.14648438 C30.78630091 108.11440462 23.89316902 108.06326684 17 108 C17.495 106.515 17.495 106.515 18 105 C18.66 105 19.32 105 20 105 C20 104.34 20 103.68 20 103 C38.48 103 56.96 103 76 103 C76 102.34 76 101.68 76 101 C77.31200404 99.64567325 78.64631404 98.31266518 80 97 C81.29004296 94.41991408 81.20410224 92.44258426 81.25 89.5625 C81.27578125 88.59441406 81.3015625 87.62632812 81.328125 86.62890625 C81.20818506 84.00330095 81.20818506 84.00330095 79.7578125 82.22265625 C77.69497497 80.78783814 76.08942007 80.33760445 73.625 79.875 C72.87476563 79.72804688 72.12453125 79.58109375 71.3515625 79.4296875 C70.57554687 79.28789062 69.79953125 79.14609375 69 79 C67.92685547 78.72929687 67.92685547 78.72929687 66.83203125 78.453125 C62.57907288 77.77265166 58.36209604 77.8562108 54.0625 77.875 C52.74088867 77.86919922 52.74088867 77.86919922 51.39257812 77.86328125 C47.6393972 77.86890399 44.20073052 77.96374766 40.49609375 78.6328125 C39.26052734 78.81457031 39.26052734 78.81457031 38 79 C37.01 78.01 37.01 78.01 36 77 C36.375 73.375 36.375 73.375 37 70 C37.66 70 38.32 70 39 70 C39 69.01 39 68.02 39 67 C40.4375 65.4375 40.4375 65.4375 42 64 C42.495 63.01 42.495 63.01 43 62 C43.66 62 44.32 62 45 62 C45.33 60.68 45.66 59.36 46 58 C46.66 58 47.32 58 48 58 C48.33 56.68 48.66 55.36 49 54 C49.66 54 50.32 54 51 54 C51.33 52.68 51.66 51.36 52 50 C52.66 50 53.32 50 54 50 C54.33 48.68 54.66 47.36 55 46 C55.66 46 56.32 46 57 46 C57 45.01 57 44.02 57 43 C57.97648017 41.97702078 58.98131338 40.98095748 60 40 C60.99 38.35 61.98 36.7 63 35 C53.43 35 43.86 35 34 35 C34 34.34 34 33.68 34 33 C32.68 33.66 31.36 34.32 30 35 C30.66 33.35 31.32 31.7 32 30 C30.69796631 30.01571045 30.69796631 30.01571045 29.36962891 30.03173828 C26.15300472 30.06579716 22.93647233 30.09088767 19.71972656 30.10986328 C18.32679219 30.11992877 16.93387898 30.13358234 15.54101562 30.15087891 C13.5404564 30.1751022 11.53974385 30.18540814 9.5390625 30.1953125 C8.33459473 30.20578613 7.13012695 30.21625977 5.88916016 30.22705078 C3 30 3 30 1 28 C0.35546875 27.85304687 -0.2890625 27.70609375 -0.953125 27.5546875 C-3.96720656 26.7378944 -5.32988489 24.75778207 -7.0078125 22.23046875 C-8.93205187 17.90471805 -8.87669642 13.59747885 -8 9 C-6.60991388 6.24096976 -5.40464471 5.06911289 -3 3 C-2.01 3 -1.02 3 0 3 C0 2.01 0 1.02 0 0 Z M-0.9375 7.625 C-3.32920431 11.53869797 -3.58412636 13.49388236 -3 18 C-1.9179358 20.99648547 -0.51425092 23.04348353 2 25 C4.93171399 25.47107031 4.93171399 25.47107031 8.31982422 25.41992188 C9.6248288 25.43583374 10.92983337 25.45174561 12.27438354 25.46813965 C13.70115098 25.469407 15.12791974 25.46958371 16.5546875 25.46875 C18.01816094 25.47585114 19.48163159 25.48355007 20.94509888 25.49182129 C24.01344538 25.50527255 27.08153459 25.50683256 30.14990234 25.50097656 C34.07668938 25.49508567 38.00223776 25.52564139 41.92878532 25.56609344 C44.95206317 25.591983 47.97504349 25.5948467 50.9984169 25.59120178 C52.44568108 25.59289251 53.89295908 25.60253077 55.34011459 25.62034607 C57.36708442 25.64254931 59.39434633 25.62961883 61.42138672 25.61523438 C62.57371796 25.61728882 63.72604919 25.61934326 64.91329956 25.62145996 C68.93311555 24.81213144 70.41696902 23.10557308 73 20 C74.57455739 16.85088521 74.34799118 14.47991184 74 11 C71.19610411 6.52427872 71.19610411 6.52427872 66.57983398 4.34423828 C61.3333484 3.83973411 56.11542548 3.85773648 50.84765625 3.8671875 C49.67416122 3.86623077 48.5006662 3.86527405 47.29161072 3.86428833 C44.81460517 3.86360908 42.33759782 3.8654456 39.8605957 3.86962891 C36.07954893 3.87497589 32.29862119 3.86967771 28.51757812 3.86328125 C26.10677057 3.86394217 23.69596309 3.86522362 21.28515625 3.8671875 C20.15892349 3.86516327 19.03269073 3.86313904 17.87232971 3.86105347 C7.71734124 3.41165729 7.71734124 3.41165729 -0.9375 7.625 Z " fill="#DDE4EB" transform="translate(199,210)"/>
<path d="M0 0 C1.32 0 2.64 0 4 0 C3.5020163 3.73487777 3.12508244 5.81237635 1 9 C0.61500109 10.65549531 0.27206865 12.3222433 0 14 C-0.99 14 -1.98 14 -3 14 C-3.12632812 14.55300781 -3.25265625 15.10601562 -3.3828125 15.67578125 C-4.06694442 18.25210082 -4.92573736 20.69660541 -5.875 23.1875 C-6.20242187 24.06792969 -6.52984375 24.94835937 -6.8671875 25.85546875 C-8 28 -8 28 -11 29 C-11.33 31.31 -11.66 33.62 -12 36 C-12.99 36 -13.98 36 -15 36 C-15.0825 36.53625 -15.165 37.0725 -15.25 37.625 C-16 40 -16 40 -17.9375 42.75 C-20.36211809 46.57061033 -21.08915501 49.59758256 -22 54 C-22.99 54 -23.98 54 -25 54 C-25.1546875 54.7734375 -25.1546875 54.7734375 -25.3125 55.5625 C-26.58186476 60.06297506 -28.40966154 64.11449231 -31 68 C-31.66 68 -32.32 68 -33 68 C-33.12246094 68.55171875 -33.24492187 69.1034375 -33.37109375 69.671875 C-34.07993611 72.29591255 -35.03611256 74.7336953 -36.0625 77.25 C-36.42472656 78.14203125 -36.78695312 79.0340625 -37.16015625 79.953125 C-37.43730469 80.62859375 -37.71445313 81.3040625 -38 82 C-38.66 82 -39.32 82 -40 82 C-39.92910156 82.74121094 -39.85820312 83.48242188 -39.78515625 84.24609375 C-40.05400838 87.69228924 -41.04157318 88.63764851 -43.4375 91.0625 C-46.06241554 93.74044413 -47.19448444 95.36344915 -48 99 C-48.99 99.495 -48.99 99.495 -50 100 C-51.06261379 101.88267444 -52.05219228 103.80699417 -53 105.75 C-53.7734375 107.32007813 -53.7734375 107.32007813 -54.5625 108.921875 C-56.01392894 111.92618709 -56.01392894 111.92618709 -57.0625 114.828125 C-58 117 -58 117 -60 118 C-60.89774655 120.14078024 -61.72043396 122.31341232 -62.5 124.5 C-64.77777778 130.88888889 -64.77777778 130.88888889 -67 132 C-67.65213292 134.02463255 -67.65213292 134.02463255 -68 136 C-68.66 136 -69.32 136 -70 136 C-70.0825 136.94875 -70.165 137.8975 -70.25 138.875 C-70.62125 140.421875 -70.62125 140.421875 -71 142 C-72.9375 143.0625 -72.9375 143.0625 -75 144 C-75.70784001 145.64960139 -76.36447498 147.32121169 -77 149 C-78.45134659 151.95746099 -79.93538214 154.89438845 -81.43359375 157.828125 C-83.12446265 161.16632111 -84.67425896 164.50004365 -86 168 C-86.66 168 -87.32 168 -88 168 C-88.103125 168.721875 -88.20625 169.44375 -88.3125 170.1875 C-89.06351998 173.25985448 -90.35134849 175.32094129 -92 178 C-92.35169068 179.32860925 -92.68770276 180.66158328 -93 182 C-93.66 182.99 -94.32 183.98 -95 185 C-95.99 185 -96.98 185 -98 185 C-98.10957031 185.63808594 -98.21914062 186.27617187 -98.33203125 186.93359375 C-98.56986328 188.17302734 -98.56986328 188.17302734 -98.8125 189.4375 C-99.03873047 190.67306641 -99.03873047 190.67306641 -99.26953125 191.93359375 C-99.51058594 192.61550781 -99.75164062 193.29742187 -100 194 C-100.99 194.33 -101.98 194.66 -103 195 C-103.61067144 196.85744207 -103.61067144 196.85744207 -104 199 C-104.63654342 200.3479743 -105.29605388 201.68596724 -106 203 C-106.66 203 -107.32 203 -108 203 C-108 204.65 -108 206.3 -108 208 C-108.99 208 -109.98 208 -111 208 C-111.0825 208.639375 -111.165 209.27875 -111.25 209.9375 C-112.71086858 215.90271336 -115.44209873 221.98659366 -119 227 C-119.66 227 -120.32 227 -121 227 C-121.12375 227.5775 -121.2475 228.155 -121.375 228.75 C-122.00648824 231.02335767 -122.88858191 232.9253529 -124 235 C-124.66 235 -125.32 235 -126 235 C-126.0825 235.639375 -126.165 236.27875 -126.25 236.9375 C-127.80852947 243.30149532 -131.02242226 249.19372341 -134 255 C-134.66 255 -135.32 255 -136 255 C-136.3403125 255.99 -136.3403125 255.99 -136.6875 257 C-137.80168998 259.54671995 -138.98086974 261.57165796 -140.5 263.875 C-142.23481244 266.54823437 -143.37456509 268.8403661 -144.125 271.9375 C-144.41375 272.948125 -144.7025 273.95875 -145 275 C-145.99 275.33 -146.98 275.66 -148 276 C-148 277.65 -148 279.3 -148 281 C-148.99 281 -149.98 281 -151 281 C-151.185625 281.8353125 -151.185625 281.8353125 -151.375 282.6875 C-152.41539673 286.53696789 -153.53879075 289.42698245 -156.0625 292.5625 C-159.46478752 296.8427972 -159.1361309 300.81683916 -159.125 306.1875 C-159.12757813 307.43917969 -159.13015625 308.69085938 -159.1328125 309.98046875 C-159.345842 312.87927536 -159.345842 312.87927536 -158 314 C-157.95936168 315.66617115 -157.957279 317.33388095 -158 319 C-157.34 319 -156.68 319 -156 319 C-151 324.47619048 -151 324.47619048 -151 327 C-148.03 327.66 -145.06 328.32 -142 329 C-142 329.99 -142 330.98 -142 332 C-145 334 -145 334 -146.75 333.875 C-153.16956539 331.37850235 -156.97388728 328.47998676 -161 323 C-161.556875 322.2575 -162.11375 321.515 -162.6875 320.75 C-165.4481755 314.96572753 -166.4899287 309.2439775 -165 303 C-164.88140625 302.20980469 -164.7628125 301.41960937 -164.640625 300.60546875 C-163.7753266 295.24927165 -162.37924631 291.42568454 -159.30859375 286.9609375 C-157.20156418 283.80353797 -155.64679161 280.41556778 -154 277 C-153.34 277 -152.68 277 -152 277 C-151.67 275.02 -151.34 273.04 -151 271 C-150.34 271 -149.68 271 -149 271 C-148.91363281 270.47792969 -148.82726562 269.95585937 -148.73828125 269.41796875 C-147.72300753 266.09281303 -145.95772996 263.2785938 -144.1875 260.3125 C-141.07584017 254.99906301 -138.35843398 249.69954879 -136 244 C-135.34 244 -134.68 244 -134 244 C-133.67 242.35 -133.34 240.7 -133 239 C-132.34 239 -131.68 239 -131 239 C-130.89816406 238.29488281 -130.79632813 237.58976563 -130.69140625 236.86328125 C-129.90085188 233.58940355 -128.59476266 231.11415533 -126.9375 228.1875 C-126.38964844 227.21167969 -125.84179688 226.23585938 -125.27734375 225.23046875 C-124.85582031 224.49441406 -124.43429688 223.75835937 -124 223 C-123.34 223 -122.68 223 -122 223 C-121.505 220.03 -121.505 220.03 -121 217 C-120.34 217 -119.68 217 -119 217 C-118.67 215.35 -118.34 213.7 -118 212 C-117.34 212 -116.68 212 -116 212 C-115.8865625 211.27167969 -115.773125 210.54335938 -115.65625 209.79296875 C-114.97814458 206.90698439 -113.98946356 204.86277336 -112.5 202.3125 C-111.83484375 201.16201172 -111.83484375 201.16201172 -111.15625 199.98828125 C-110.7746875 199.33214844 -110.393125 198.67601562 -110 198 C-109.67 197.34 -109.34 196.68 -109 196 C-108.34 196 -107.68 196 -107 196 C-106.505 193.03 -106.505 193.03 -106 190 C-105.34 190 -104.68 190 -104 190 C-103.67 188.35 -103.34 186.7 -103 185 C-102.34 185 -101.68 185 -101 185 C-100.9175 184.32195312 -100.835 183.64390625 -100.75 182.9453125 C-99.79550641 179.19693663 -97.97611132 176.15700307 -96 172.875 C-93.1363134 168.11589003 -93.1363134 168.11589003 -91 163 C-90.34 163 -89.68 163 -89 163 C-88.89042969 162.26910156 -88.78085938 161.53820312 -88.66796875 160.78515625 C-87.96090494 157.83698962 -86.9482978 155.97491864 -85.3125 153.4375 C-81.8090044 147.81324435 -78.88730092 141.95889764 -76 136 C-75.34 136 -74.68 136 -74 136 C-73.67 134.35 -73.34 132.7 -73 131 C-72.34 131 -71.68 131 -71 131 C-70.896875 130.29875 -70.79375 129.5975 -70.6875 128.875 C-69.90640997 125.60862353 -68.57941257 122.9528148 -67 120 C-66.34 120 -65.68 120 -65 120 C-64.71125 119.113125 -64.4225 118.22625 -64.125 117.3125 C-63.16851252 114.49617576 -62.13201054 111.74916844 -61 109 C-60.34 109 -59.68 109 -59 109 C-58.9175 108.31164062 -58.835 107.62328125 -58.75 106.9140625 C-57.81598402 103.28502123 -56.02445521 100.47538944 -54 97.375 C-51.09316341 92.89917129 -51.09316341 92.89917129 -49 88 C-48.34 88 -47.68 88 -47 88 C-46.67 86.02 -46.34 84.04 -46 82 C-45.34 82 -44.68 82 -44 82 C-43.896875 81.29875 -43.79375 80.5975 -43.6875 79.875 C-42.90640997 76.60862353 -41.57941257 73.9528148 -40 71 C-39.34 71 -38.68 71 -38 71 C-37.938125 70.34 -37.87625 69.68 -37.8125 69 C-36.84813391 65.43926366 -35.19399447 62.91195685 -33.15625 59.8671875 C-31.83827223 57.89916091 -31.83827223 57.89916091 -31 55 C-30.34 55 -29.68 55 -29 55 C-28.67 53.02 -28.34 51.04 -28 49 C-27.34 49 -26.68 49 -26 49 C-25.72414062 48.28457031 -25.44828125 47.56914062 -25.1640625 46.83203125 C-24.01751478 44.04261145 -22.73772885 41.37709642 -21.375 38.6875 C-20.92898437 37.80449219 -20.48296875 36.92148438 -20.0234375 36.01171875 C-19.68570313 35.34785156 -19.34796875 34.68398437 -19 34 C-18.34 34 -17.68 34 -17 34 C-16.67 32.02 -16.34 30.04 -16 28 C-15.34 28 -14.68 28 -14 28 C-13.88011719 27.26136719 -13.76023438 26.52273437 -13.63671875 25.76171875 C-13.01271339 23.05514336 -12.19726482 21.20110728 -10.8125 18.8125 C-10.3690625 18.04164062 -9.925625 17.27078125 -9.46875 16.4765625 C-7.44242206 13.05982869 -5.4014655 9.65253318 -3.33203125 6.26171875 C-2.12401719 4.21057464 -1.03461602 2.14278294 0 0 Z " fill="#E4E8EB" transform="translate(201,105)"/>
<path d="M0 0 C27.45038993 -0.43630648 27.45038993 -0.43630648 37 2 C37.495 2.495 37.495 2.495 38 3 C40.32817964 3.36760731 42.6618385 3.70241581 45 4 C45 4.66 45 5.32 45 6 C45.60328125 6.12117188 46.2065625 6.24234375 46.828125 6.3671875 C47.62734375 6.53476562 48.4265625 6.70234375 49.25 6.875 C50.43335938 7.11863281 50.43335938 7.11863281 51.640625 7.3671875 C53.96831144 7.99150075 55.89031952 8.84838542 58 10 C58 10.66 58 11.32 58 12 C58.763125 11.938125 59.52625 11.87625 60.3125 11.8125 C63 12 63 12 64.8125 13.375 C66 15 66 15 66 17 C66.70125 17.061875 67.4025 17.12375 68.125 17.1875 C71.92797627 18.26225416 74.04486753 20.42211849 77 23 C77.680625 23.33 78.36125 23.66 79.0625 24 C85.25832795 27.19784669 90.05064038 34.46305662 94 40 C94 40.66 94 41.32 94 42 C94.66 42 95.32 42 96 42 C96 42.99 96 43.98 96 45 C96.66 45 97.32 45 98 45 C98.33 46.65 98.66 48.3 99 50 C99.99 50.33 100.98 50.66 102 51 C102 51.99 102 52.98 102 54 C128.4 54 154.8 54 182 54 C182 54.66 182 55.32 182 56 C184.31 56.33 186.62 56.66 189 57 C189 57.33 189 57.66 189 58 C158.97 58 128.94 58 98 58 C96.02 54.37 94.04 50.74 92 47 C90.69200496 45.31337481 89.37157538 43.63533988 88 42 C88 41.34 88 40.68 88 40 C87.34 40 86.68 40 86 40 C86 39.01 86 38.02 86 37 C85.01 36.67 84.02 36.34 83 36 C83 35.34 83 34.68 83 34 C82.195625 33.6596875 82.195625 33.6596875 81.375 33.3125 C78.17539839 31.54429911 75.70962777 29.46329797 73 27 C73 26.34 73 25.68 73 25 C72.4225 24.71125 71.845 24.4225 71.25 24.125 C69.16666667 23.08333333 67.08333333 22.04166667 65 21 C65 20.34 65 19.68 65 19 C64.27425781 18.88398438 63.54851562 18.76796875 62.80078125 18.6484375 C59.9308517 17.98399077 57.77968119 17.00693828 55.1875 15.625 C50.86262348 13.39176763 46.58325415 11.63132775 42 10 C41.23816406 9.66484375 40.47632813 9.3296875 39.69140625 8.984375 C36.54716843 7.834378 33.56549322 7.38381639 30.25 6.9375 C24.10376135 6.10376135 24.10376135 6.10376135 23 5 C19.2778346 4.74610932 15.54228963 4.8147646 11.8125 4.8125 C10.77029297 4.80025391 9.72808594 4.78800781 8.65429688 4.77539062 C3.32654039 4.76522961 -0.99727438 4.97249785 -6 7 C-8.16015625 7.34375 -8.16015625 7.34375 -10.0625 7.5 C-13.51267788 7.93811783 -15.83542482 8.71706412 -19 10 C-21.8125 10.125 -21.8125 10.125 -24 10 C-24 10.66 -24 11.32 -24 12 C-25.175625 12.4125 -26.35125 12.825 -27.5625 13.25 C-30.49691035 14.33739674 -33.13049997 15.57715383 -35.8125 17.1875 C-39 19 -39 19 -42 19 C-42 19.66 -42 20.32 -42 21 C-43.86328125 22.47265625 -43.86328125 22.47265625 -46.3125 24.0625 C-47.11300781 24.58972656 -47.91351563 25.11695313 -48.73828125 25.66015625 C-51 27 -51 27 -54 28 C-54.33 28.99 -54.66 29.98 -55 31 C-56.64639965 32.35827971 -58.31295807 33.69254251 -60 35 C-60.33 35.66 -60.66 36.32 -61 37 C-61.66 37 -62.32 37 -63 37 C-63.33 37.99 -63.66 38.98 -64 40 C-64.66 40 -65.32 40 -66 40 C-66.66 41.98 -67.32 43.96 -68 46 C-68.66 46 -69.32 46 -70 46 C-70.2475 46.680625 -70.495 47.36125 -70.75 48.0625 C-72.24197908 51.56865083 -74.06835511 54.71620368 -76 58 C-77.32 57.67 -78.64 57.34 -80 57 C-80 54.37886292 -79.68707555 52.49064888 -79 50 C-78.34 50 -77.68 50 -77 50 C-76.87858643 49.41798828 -76.75717285 48.83597656 -76.63208008 48.23632812 C-74.59618061 41.03322302 -69.03170021 35.58285747 -63.8125 30.5 C-62.86987305 29.55253906 -62.86987305 29.55253906 -61.90820312 28.5859375 C-57.26767113 24 -57.26767113 24 -55 24 C-55 23.34 -55 22.68 -55 22 C-53.68 21.67 -52.36 21.34 -51 21 C-51 20.34 -51 19.68 -51 19 C-48 17 -48 17 -44 17 C-43.505 15.515 -43.505 15.515 -43 14 C-41.36328125 12.9375 -41.36328125 12.9375 -39.3125 12 C-38.59578125 11.66355469 -37.8790625 11.32710938 -37.140625 10.98046875 C-36.08101562 10.49513672 -36.08101562 10.49513672 -35 10 C-31.25808191 8.36437402 -31.25808191 8.36437402 -28 6 C-26.00041636 5.95919217 -23.99954746 5.95745644 -22 6 C-22 5.34 -22 4.68 -22 4 C-20.865625 3.855625 -19.73125 3.71125 -18.5625 3.5625 C-15.19222799 3.38828522 -15.19222799 3.38828522 -14 2 C-11.64686445 1.92728259 -9.29166332 1.91629132 -6.9375 1.9375 C-5.00197266 1.95103516 -5.00197266 1.95103516 -3.02734375 1.96484375 C-2.02832031 1.97644531 -1.02929688 1.98804688 0 2 C0 1.34 0 0.68 0 0 Z " fill="#E9ECEF" transform="translate(225,382)"/>
<path d="M0 0 C8.91011164 -0.04637315 17.82018163 -0.0818945 26.73038769 -0.10362434 C30.86790929 -0.11405441 35.00534823 -0.12819942 39.14282227 -0.15087891 C43.1369082 -0.17263501 47.13091469 -0.18457447 51.12505531 -0.18975449 C52.64765994 -0.19344527 54.1702603 -0.20065248 55.69283104 -0.21146011 C57.82811195 -0.22601195 59.96306603 -0.22797642 62.09838867 -0.22705078 C63.3130632 -0.231492 64.52773773 -0.23593323 65.77922058 -0.24050903 C70.00652895 0.07516171 72.88747946 0.81075391 75.8125 3.9375 C77 6 77 6 77 9 C77.99 9 78.98 9 80 9 C80.05399736 10.45792884 80.09279177 11.91642712 80.125 13.375 C80.14820313 14.18710938 80.17140625 14.99921875 80.1953125 15.8359375 C80 18 80 18 78 20 C77.731875 20.969375 77.46375 21.93875 77.1875 22.9375 C75.7739837 26.58288415 74.4609827 27.36058714 71 29 C71.495 31.475 71.495 31.475 72 34 C71.34 34 70.68 34 70 34 C69.67 34.99 69.34 35.98 69 37 C67.875 30.375 67.875 30.375 69 27 C66.69 26.67 64.38 26.34 62 26 C62 25.67 62 25.34 62 25 C63.6396875 24.5359375 63.6396875 24.5359375 65.3125 24.0625 C67.55407994 23.41662103 69.7869351 22.7376883 72 22 C73.48121681 18.49894209 73.32700672 14.72787655 73 11 C71.52383326 8.0296131 71.52383326 8.0296131 69 6 C64.88142111 5.06488808 60.93159387 4.87773528 56.71923828 4.88647461 C55.4984256 4.88655014 54.27761292 4.88662567 53.01980591 4.88670349 C51.71647308 4.89186478 50.41314026 4.89702606 49.0703125 4.90234375 C47.71125338 4.90421099 46.35219358 4.90563345 44.99313354 4.90663147 C41.43231314 4.91043252 37.87153413 4.92024198 34.31072998 4.93133545 C30.67070068 4.94160165 27.03066463 4.94614021 23.390625 4.95117188 C16.26039983 4.96186661 9.13020263 4.97891378 2 5 C1.67 5.99 1.34 6.98 1 8 C0.2265625 8.61875 0.2265625 8.61875 -0.5625 9.25 C-2.83484616 12.01633446 -2.24273015 14.54109535 -2 18 C-1.80469849 20.29887008 -1.80469849 20.29887008 -1 22 C-0.01 22.33 0.98 22.66 2 23 C2 23.66 2 24.32 2 25 C2.66 25 3.32 25 4 25 C3.34 26.32 2.68 27.64 2 29 C-2.35429225 27.88032485 -4.63228282 25.85343273 -7.04296875 22.1953125 C-8.92512575 17.87787481 -8.87235621 13.57471839 -8 9 C-6.60991388 6.24096976 -5.40464471 5.06911289 -3 3 C-2.01 3 -1.02 3 0 3 C0 2.01 0 1.02 0 0 Z " fill="#EDEFF5" transform="translate(199,210)"/>
<path d="M0 0 C7.44133772 -0.04647641 14.8826438 -0.08194662 22.32409763 -0.10362434 C25.78000096 -0.11403205 29.23580449 -0.12813566 32.69165039 -0.15087891 C36.67072325 -0.1768997 40.64975663 -0.18649772 44.62890625 -0.1953125 C45.86145645 -0.20563507 47.09400665 -0.21595764 48.36390686 -0.22659302 C54.29786881 -0.22736532 59.41222779 -0.07166924 65 2 C65.08121924 3.60332791 65.13929134 5.20784026 65.1875 6.8125 C65.23970703 8.15248047 65.23970703 8.15248047 65.29296875 9.51953125 C64.94341955 12.47904783 64.20252152 13.1058315 62 15 C60.80972016 17.59915538 60.80972016 17.59915538 60 20 C59.34 20 58.68 20 58 20 C58 20.66 58 21.32 58 22 C56.66666667 23.33333333 55.33333333 24.66666667 54 26 C53.319375 27.0725 52.63875 28.145 51.9375 29.25 C51.298125 30.1575 50.65875 31.065 50 32 C49.01 32 48.02 32 47 32 C47.33 29.69 47.66 27.38 48 25 C48.66 25 49.32 25 50 25 C50.33 23.68 50.66 22.36 51 21 C51.66 21 52.32 21 53 21 C53 20.01 53 19.02 53 18 C53.97648017 16.97702078 54.98131338 15.98095748 56 15 C56.99 13.35 57.98 11.7 59 10 C49.43 10 39.86 10 30 10 C30 9.34 30 8.68 30 8 C28.02 8.99 28.02 8.99 26 10 C26.66 8.35 27.32 6.7 28 5 C18.43 5 8.86 5 -1 5 C-0.67 3.35 -0.34 1.7 0 0 Z " fill="#DCE2ED" transform="translate(203,235)"/>
<path d="M0 0 C0 1.32 0 2.64 0 4 C-0.66 4.33 -1.32 4.66 -2 5 C-2.33 5.99 -2.66 6.98 -3 8 C-3.66 8 -4.32 8 -5 8 C-5.28875 8.5775 -5.5775 9.155 -5.875 9.75 C-6.24625 10.4925 -6.6175 11.235 -7 12 C-7.268125 12.639375 -7.53625 13.27875 -7.8125 13.9375 C-9.43568009 16.75670752 -11.67984177 18.73933301 -14 21 C-14.33 21.66 -14.66 22.32 -15 23 C-15.66 23 -16.32 23 -17 23 C-17.28875 23.5775 -17.5775 24.155 -17.875 24.75 C-18.24625 25.4925 -18.6175 26.235 -19 27 C-19.33 27.721875 -19.66 28.44375 -20 29.1875 C-21 31 -21 31 -23 32 C-23.33 32.99 -23.66 33.98 -24 35 C-24.66 35 -25.32 35 -26 35 C-26.2475 35.54140625 -26.495 36.0828125 -26.75 36.640625 C-28.27988604 39.5282849 -30.09150997 42.09776018 -32 44.75 C-32.70125 45.73484375 -33.4025 46.7196875 -34.125 47.734375 C-35.053125 48.85585938 -35.053125 48.85585938 -36 50 C-36.66 50 -37.32 50 -38 50 C-40.56152005 55.3707024 -40.56152005 55.3707024 -39.875 60.9375 C-37.92082363 64.12932141 -35.95296973 65.7653202 -33 68 C-33 68.66 -33 69.32 -33 70 C-32.38511719 70.03738281 -31.77023438 70.07476562 -31.13671875 70.11328125 C-30.32847656 70.17902344 -29.52023438 70.24476563 -28.6875 70.3125 C-27.88699219 70.37050781 -27.08648437 70.42851562 -26.26171875 70.48828125 C-23.63727666 71.08206694 -22.69179328 71.95780294 -21 74 C-21.33 74.66 -21.66 75.32 -22 76 C-25.63 76 -29.26 76 -33 76 C-33.33 75.01 -33.66 74.02 -34 73 C-34.86625 72.814375 -34.86625 72.814375 -35.75 72.625 C-39.89752446 71.47290987 -42.19635364 67.99762996 -44.8125 64.75 C-46.56858597 60.6832746 -46.98083867 57.34566021 -46 53 C-44.0457721 49.34600096 -41.81294367 46.04841634 -39 43 C-38.34 43 -37.68 43 -37 43 C-37 42.01 -37 41.02 -37 40 C-36.01 40 -35.02 40 -34 40 C-33.938125 39.278125 -33.87625 38.55625 -33.8125 37.8125 C-32.75482086 34.15130298 -30.72833857 32.59192164 -28 30 C-27.67 29.01 -27.34 28.02 -27 27 C-26.01 26.34 -25.02 25.68 -24 25 C-22.79549696 22.44816596 -22.79549696 22.44816596 -22 20 C-21.01 20 -20.02 20 -19 20 C-17.84922047 17.78063948 -16.90150272 15.69747265 -16.125 13.3125 C-15.75375 12.549375 -15.3825 11.78625 -15 11 C-13.66666667 10.66666667 -12.33333333 10.33333333 -11 10 C-9.87914688 7.6569191 -9.87914688 7.6569191 -9 5 C-7.47680089 2.50749237 -6.70331617 1.25575134 -3.9375 0.25 C-2 0 -2 0 0 0 Z " fill="#EAF0F7" transform="translate(233,243)"/>
<path d="M0 0 C42.57 0.495 42.57 0.495 86 1 C86.495 2.485 86.495 2.485 87 4 C85.16642556 5.83357444 82.60364305 5.11999967 80.1640625 5.12442017 C79.32609131 5.12082489 78.48812012 5.11722961 77.62475586 5.11352539 C76.30780479 5.11374443 76.30780479 5.11374443 74.96424866 5.1139679 C72.04775565 5.11326844 69.13132567 5.10547455 66.21484375 5.09765625 C64.19845108 5.09579218 62.18205796 5.09436823 60.16566467 5.09336853 C54.84734862 5.08954244 49.5290597 5.07971139 44.21075439 5.06866455 C38.78829312 5.05845238 33.36582748 5.05387133 27.94335938 5.04882812 C17.29556097 5.0380892 6.64778274 5.02101169 -4 5 C-3.34 4.01 -2.68 3.02 -2 2 C-1.34 2 -0.68 2 0 2 C0 1.34 0 0.68 0 0 Z " fill="#F6F7F7" transform="translate(59,435)"/>
<path d="M0 0 C0.66 0.33 1.32 0.66 2 1 C-0.75134539 3.95514876 -3.39733775 6.1524809 -7 8 C-7.99 8 -8.98 8 -10 8 C-10 8.66 -10 9.32 -10 10 C-11.86328125 11.47265625 -11.86328125 11.47265625 -14.3125 13.0625 C-15.51326172 13.85333984 -15.51326172 13.85333984 -16.73828125 14.66015625 C-19 16 -19 16 -22 17 C-22.33 17.99 -22.66 18.98 -23 20 C-24.64639965 21.35827971 -26.31295807 22.69254251 -28 24 C-28.33 24.66 -28.66 25.32 -29 26 C-29.66 26 -30.32 26 -31 26 C-31.33 26.99 -31.66 27.98 -32 29 C-32.66 29 -33.32 29 -34 29 C-34.66 30.98 -35.32 32.96 -36 35 C-36.66 35 -37.32 35 -38 35 C-38.2475 35.680625 -38.495 36.36125 -38.75 37.0625 C-40.24197908 40.56865083 -42.06835511 43.71620368 -44 47 C-45.32 46.67 -46.64 46.34 -48 46 C-48 43.37886292 -47.68707555 41.49064888 -47 39 C-46.34 39 -45.68 39 -45 39 C-44.87858643 38.41798828 -44.75717285 37.83597656 -44.63208008 37.23632812 C-42.59618061 30.03322302 -37.03170021 24.58285747 -31.8125 19.5 C-30.86987305 18.55253906 -30.86987305 18.55253906 -29.90820312 17.5859375 C-25.26767113 13 -25.26767113 13 -23 13 C-23 12.34 -23 11.68 -23 11 C-21.4221875 10.5978125 -21.4221875 10.5978125 -19.8125 10.1875 C-16.41218959 9.12838692 -13.9823975 7.87464985 -11 6 C-10.34 6 -9.68 6 -9 6 C-9 5.34 -9 4.68 -9 4 C-7.54618103 3.30300448 -6.08677047 2.61766134 -4.625 1.9375 C-3.81289062 1.55464844 -3.00078125 1.17179687 -2.1640625 0.77734375 C-1.44992188 0.52082031 -0.73578125 0.26429688 0 0 Z " fill="#EBEEF1" transform="translate(193,393)"/>
<path d="M0 0 C0 0.33 0 0.66 0 1 C-4.29 1 -8.58 1 -13 1 C-13 1.66 -13 2.32 -13 3 C-8.71 3 -4.42 3 0 3 C0.495 4.485 0.495 4.485 1 6 C-0.01320312 5.96519531 -1.02640625 5.93039063 -2.0703125 5.89453125 C-3.4218583 5.86637405 -4.77342219 5.83907597 -6.125 5.8125 C-6.79015625 5.78736328 -7.4553125 5.76222656 -8.140625 5.73632812 C-16.70794328 5.61033815 -21.66615125 9.97306615 -27.66796875 15.54296875 C-33.40809768 21.59077628 -36.12066457 29.29496274 -39 37 C-40.24546405 34.50907189 -39.7767578 33.58919267 -39 31 C-39.99 31 -40.98 31 -42 31 C-41.67 29.35 -41.34 27.7 -41 26 C-40.34 26 -39.68 26 -39 26 C-38.8865625 25.43539062 -38.773125 24.87078125 -38.65625 24.2890625 C-37.91959139 21.71952712 -36.8316173 19.68984636 -35.5 17.375 C-34.83484375 16.21097656 -34.83484375 16.21097656 -34.15625 15.0234375 C-33.7746875 14.35570313 -33.393125 13.68796875 -33 13 C-32.67 12.34 -32.34 11.68 -32 11 C-31.34 11 -30.68 11 -30 11 C-29.67 10.01 -29.34 9.02 -29 8 C-28.34 8 -27.68 8 -27 8 C-26.67 7.01 -26.34 6.02 -26 5 C-25.34 5 -24.68 5 -24 5 C-24 4.34 -24 3.68 -24 3 C-15.4715058 -0.38198908 -9.11303867 -1.17064726 0 0 Z " fill="#E3EEF9" transform="translate(244,74)"/>
<path d="M0 0 C0.495 1.485 0.495 1.485 1 3 C0.05988318 4.70116376 -0.94895617 6.36504293 -2 8 C-2.33 8.825 -2.66 9.65 -3 10.5 C-4.08875623 13.22189058 -5.34206939 15.58218453 -7 18 C-7.66 18 -8.32 18 -9 18 C-9.12375 18.5775 -9.2475 19.155 -9.375 19.75 C-10.00648824 22.02335767 -10.88858191 23.9253529 -12 26 C-12.66 26 -13.32 26 -14 26 C-14.0825 26.639375 -14.165 27.27875 -14.25 27.9375 C-15.80852947 34.30149532 -19.02242226 40.19372341 -22 46 C-22.66 46 -23.32 46 -24 46 C-24.226875 46.66 -24.45375 47.32 -24.6875 48 C-25.81594497 50.57930279 -27.02901632 52.65988617 -28.5625 55 C-30.17371633 57.48239725 -30.98641423 58.9305616 -31.5625 61.875 C-31.706875 62.57625 -31.85125 63.2775 -32 64 C-34.0625 65.3125 -34.0625 65.3125 -36 66 C-34.65150163 61.64029169 -32.95092154 57.68658562 -30.875 53.625 C-30.33617187 52.56539063 -29.79734375 51.50578125 -29.2421875 50.4140625 C-28.83226562 49.61742187 -28.42234375 48.82078125 -28 48 C-27.34 48 -26.68 48 -26 48 C-25.34 43.71 -24.68 39.42 -24 35 C-23.34 35 -22.68 35 -22 35 C-21.67 33.35 -21.34 31.7 -21 30 C-20.34 30 -19.68 30 -19 30 C-18.83564453 28.93458984 -18.83564453 28.93458984 -18.66796875 27.84765625 C-16.80150533 19.89062797 -12.81504513 14.2964415 -6 10 C-4.75759369 7.99022509 -3.79247846 5.97374379 -2.859375 3.8046875 C-2 2 -2 2 0 0 Z " fill="#E0E5E5" transform="translate(89,314)"/>
<path d="M0 0 C22.77 0 45.54 0 69 0 C69 0.99 69 1.98 69 3 C68.01 2.67 67.02 2.34 66 2 C64.14471321 1.88373271 62.2857064 1.82339944 60.42700195 1.79467773 C59.28604568 1.77473251 58.14508942 1.75478729 56.96955872 1.73423767 C55.73823715 1.71752518 54.50691559 1.70081268 53.23828125 1.68359375 C51.34688667 1.6524221 51.34688667 1.6524221 49.4172821 1.62062073 C46.06854542 1.56627878 42.71979795 1.51603834 39.37097168 1.46777344 C35.95233771 1.41749643 32.53379174 1.36184276 29.11523438 1.30664062 C22.41022638 1.199465 15.70515247 1.09769488 9 1 C9.33 1.99 9.66 2.98 10 4 C9 5 9 5 5.4375 5.0625 C4.303125 5.041875 3.16875 5.02125 2 5 C1.67 5.99 1.34 6.98 1 8 C0.2265625 8.61875 0.2265625 8.61875 -0.5625 9.25 C-2.83484616 12.01633446 -2.24273015 14.54109535 -2 18 C-1.80469849 20.29887008 -1.80469849 20.29887008 -1 22 C-0.01 22.33 0.98 22.66 2 23 C2 23.66 2 24.32 2 25 C2.66 25 3.32 25 4 25 C3.34 26.32 2.68 27.64 2 29 C-2.35429225 27.88032485 -4.63228282 25.85343273 -7.04296875 22.1953125 C-8.92512575 17.87787481 -8.87235621 13.57471839 -8 9 C-6.60991388 6.24096976 -5.40464471 5.06911289 -3 3 C-2.01 3 -1.02 3 0 3 C0 2.01 0 1.02 0 0 Z " fill="#E6E7EF" transform="translate(199,210)"/>
<path d="M0 0 C6.53278786 -0.02527002 13.06556321 -0.04283292 19.59838867 -0.05493164 C21.82267732 -0.05997317 24.04696263 -0.06680623 26.27124023 -0.07543945 C29.46078309 -0.08751298 32.65028229 -0.09322996 35.83984375 -0.09765625 C37.34139259 -0.10539818 37.34139259 -0.10539818 38.87327576 -0.11329651 C39.79415482 -0.11337204 40.71503387 -0.11344757 41.66381836 -0.11352539 C42.47878281 -0.115746 43.29374725 -0.11796661 44.13340759 -0.12025452 C46 0 46 0 47 1 C48.68183948 1.23287008 50.3712416 1.41264166 52.0625 1.5625 C52.98160156 1.64628906 53.90070313 1.73007813 54.84765625 1.81640625 C55.91306641 1.90728516 55.91306641 1.90728516 57 2 C57 2.66 57 3.32 57 4 C37.86 4 18.72 4 -1 4 C-0.67 2.68 -0.34 1.36 0 0 Z " fill="#ADB4BF" transform="translate(203,235)"/>
<path d="M0 0 C14.52 0 29.04 0 44 0 C44 0.33 44 0.66 44 1 C25.19 1.99 25.19 1.99 6 3 C30.75 3.495 30.75 3.495 56 4 C56 4.33 56 4.66 56 5 C36.53 5 17.06 5 -3 5 C-2.67 4.01 -2.34 3.02 -2 2 C-1.34 2 -0.68 2 0 2 C0 1.34 0 0.68 0 0 Z " fill="#E8ECF4" transform="translate(219,313)"/>
<path d="M0 0 C2.66666667 1.33333333 5.33333333 2.66666667 8 4 C7.773125 5.0725 7.54625 6.145 7.3125 7.25 C6.94945505 11.60653942 7.39491498 11.80861974 10 15 C10.90401013 16.5669509 11.77652859 18.15229361 12.625 19.75 C14.4994267 23.2615842 16.4164259 26.73619779 18.42578125 30.171875 C18.84069824 30.88762695 19.25561523 31.60337891 19.68310547 32.34082031 C20.51146329 33.76666627 21.34760077 35.18802425 22.19189453 36.60449219 C23.20528293 38.3605723 24.11171197 40.17744196 25 42 C24.67 42.99 24.34 43.98 24 45 C20.56603408 41.83713665 18.50992792 39.41363545 17 35 C16.34 34.01 15.68 33.02 15 32 C15 30.68 15 29.36 15 28 C14.01 27.67 13.02 27.34 12 27 C11.896875 26.236875 11.79375 25.47375 11.6875 24.6875 C11.23930177 21.98440058 11.23930177 21.98440058 9.5 20.5 C7.50098925 18.50098925 7.37109019 16.74606742 7 14 C6.34 14 5.68 14 5 14 C2 7.5 2 7.5 2 3 C1.34 3 0.68 3 0 3 C0 2.01 0 1.02 0 0 Z " fill="#DDE8F5" transform="translate(355,264)"/>
<path d="M0 0 C3.0831351 1.19899698 6.06279492 2.47700477 9 4 C9 4.66 9 5.32 9 6 C9.66 6 10.32 6 11 6 C14.05866442 9.93256854 14.33585796 12.91668732 14.1875 17.8125 C14.16042969 18.97394531 14.13335937 20.13539063 14.10546875 21.33203125 C14.07066406 22.21246094 14.03585937 23.09289062 14 24 C13.01 24 12.02 24 11 24 C11.33 23.67 11.66 23.34 12 23 C12.07226502 21.14712498 12.0838122 19.29166122 12.0625 17.4375 C12.05347656 16.42558594 12.04445313 15.41367187 12.03515625 14.37109375 C12.02355469 13.58863281 12.01195312 12.80617188 12 12 C11.34 11.67 10.68 11.34 10 11 C10.03480469 11.77085937 10.06960938 12.54171875 10.10546875 13.3359375 C10.13253906 14.33882813 10.15960938 15.34171875 10.1875 16.375 C10.22230469 17.37273437 10.25710938 18.37046875 10.29296875 19.3984375 C10.14794922 20.68621094 10.14794922 20.68621094 10 22 C9.01 22.66 8.02 23.32 7 24 C7.03480469 23.09636719 7.06960938 22.19273437 7.10546875 21.26171875 C7.13253906 20.08222656 7.15960938 18.90273438 7.1875 17.6875 C7.22230469 16.51574219 7.25710938 15.34398437 7.29296875 14.13671875 C7.26011783 11.064951 7.26011783 11.064951 5.75 9.15625 C3.76490409 7.84466877 2.13523343 7.30750876 -0.1875 6.8125 C-2.0746875 6.4103125 -2.0746875 6.4103125 -4 6 C-3.34 5.67 -2.68 5.34 -2 5 C-2 4.34 -2 3.68 -2 3 C-1.34 3 -0.68 3 0 3 C0 2.01 0 1.02 0 0 Z " fill="#EAEDF0" transform="translate(273,283)"/>
<path d="M0 0 C11.22 0 22.44 0 34 0 C34 0.66 34 1.32 34 2 C33.34 2 32.68 2 32 2 C32 2.66 32 3.32 32 4 C26.25 5.125 26.25 5.125 24 4 C22.18658158 3.91528636 20.37005839 3.89278917 18.5546875 3.90234375 C17.47832031 3.90556641 16.40195313 3.90878906 15.29296875 3.91210938 C13.60107422 3.92467773 13.60107422 3.92467773 11.875 3.9375 C10.73933594 3.94201172 9.60367188 3.94652344 8.43359375 3.95117188 C5.62234362 3.96298385 2.8111977 3.97945493 0 4 C0 2.68 0 1.36 0 0 Z " fill="#D5DBD8" transform="translate(239,284)"/>
<path d="M0 0 C0.33 0.99 0.66 1.98 1 3 C0.05988318 4.70116376 -0.94895617 6.36504293 -2 8 C-2.33 8.825 -2.66 9.65 -3 10.5 C-4.08875623 13.22189058 -5.34206939 15.58218453 -7 18 C-7.66 18 -8.32 18 -9 18 C-9.12375 18.5775 -9.2475 19.155 -9.375 19.75 C-10.00648824 22.02335767 -10.88858191 23.9253529 -12 26 C-12.66 26 -13.32 26 -14 26 C-14.061875 26.66 -14.12375 27.32 -14.1875 28 C-15.32136497 32.18657836 -17.59631064 35.42550992 -20 39 C-20.33 38.34 -20.66 37.68 -21 37 C-20.15750698 35.15185511 -19.22357876 33.34507635 -18.25 31.5625 C-16.05440745 27.37778117 -14.51787356 23.61146375 -13.5 19 C-12.35903744 14.2673683 -12.35903744 14.2673683 -9.0625 11.8125 C-8.051875 11.214375 -7.04125 10.61625 -6 10 C-4.7467439 7.99235674 -3.79387253 5.97698438 -2.859375 3.8046875 C-2 2 -2 2 0 0 Z " fill="#E3E9E3" transform="translate(89,314)"/>
<path d="M0 0 C6.70518586 -0.19818283 12.65176798 -0.30844801 19 2 C19 2.66 19 3.32 19 4 C16.23149177 5.38425411 13.99580816 5.11959962 10.89794922 5.11352539 C9.61677216 5.11344986 8.33559509 5.11337433 7.01559448 5.11329651 C5.61195843 5.10818948 4.20832277 5.10297348 2.8046875 5.09765625 C1.37265065 5.09579146 -0.05938684 5.09436784 -1.49142456 5.09336853 C-5.26273354 5.08954819 -9.03400407 5.07972202 -12.80529785 5.06866455 C-16.65274536 5.05844005 -20.50019907 5.05386868 -24.34765625 5.04882812 C-31.89845503 5.03809933 -39.44922213 5.02102869 -47 5 C-47 4.67 -47 4.34 -47 4 C-27.86 4 -8.72 4 11 4 C11 3.34 11 2.68 11 2 C7.7 2 4.4 2 1 2 C0.505 1.01 0.505 1.01 0 0 Z " fill="#CAD3E0" transform="translate(249,235)"/>
<path d="M0 0 C4.26652402 3.7924658 6.89480975 7.67233976 9 13 C9 13.66 9 14.32 9 15 C9.66 15 10.32 15 11 15 C11.99 16.98 12.98 18.96 14 21 C14.66 20.67 15.32 20.34 16 20 C18.20399168 24.55491614 18.58846263 29.02906176 19 34 C13.0463563 28.72677272 9.92150323 22.30375808 7 15 C6.17809098 13.51445497 5.3433792 12.03596191 4.5 10.5625 C2.5503746 7.12333778 1.07845467 3.82361202 0 0 Z " fill="#CEECF2" transform="translate(283,134)"/>
<path d="M0 0 C0.66 0 1.32 0 2 0 C6 6.625 6 6.625 6 10 C6.66 10 7.32 10 8 10 C9.10675619 12.1862225 10.21044378 14.37390948 11.3125 16.5625 C11.62123047 17.17158203 11.92996094 17.78066406 12.24804688 18.40820312 C14.3279067 22.54602951 16.2128583 26.72735662 18 31 C17.01 31 16.02 31 15 31 C8.48063781 19.47835991 8.48063781 19.47835991 7 14 C6.34 14 5.68 14 5 14 C5 12.35 5 10.7 5 9 C4.34 9 3.68 9 3 9 C2.01 6.03 1.02 3.06 0 0 Z " fill="#DBE7F5" transform="translate(314,191)"/>
<path d="M0 0 C0.33 0 0.66 0 1 0 C1.33 1.65 1.66 3.3 2 5 C2.66 3.68 3.32 2.36 4 1 C4.66 4.63 5.32 8.26 6 12 C6.99 12.33 7.98 12.66 9 13 C9 13.66 9 14.32 9 15 C9.66 15 10.32 15 11 15 C10.34 16.32 9.68 17.64 9 19 C4.53257267 17.63495276 2.23972868 16.14764571 0 12 C-0.33040563 7.97744259 -0.23117088 4.0262262 0 0 Z " fill="#DCDCDC" transform="translate(192,220)"/>
<path d="M0 0 C1.30119781 0.00007553 2.60239563 0.00015106 3.94302368 0.00022888 C5.36875445 0.00533592 6.79448484 0.01055192 8.22021484 0.01586914 C9.67467195 0.01773392 11.12912969 0.01915754 12.58358765 0.02015686 C16.4140801 0.02397734 20.24453472 0.03380363 24.07501221 0.04486084 C27.98278288 0.05508504 31.89055966 0.05965665 35.79833984 0.06469727 C43.46762794 0.07542631 51.13688484 0.09249711 58.80615234 0.11352539 C58.80615234 1.10352539 58.80615234 2.09352539 58.80615234 3.11352539 C57.81615234 2.78352539 56.82615234 2.45352539 55.80615234 2.11352539 C53.95147362 2.02015247 52.09359933 1.98560006 50.23657227 1.98413086 C49.0949614 1.9809787 47.95335052 1.97782654 46.77714539 1.97457886 C45.54277237 1.97660309 44.30839935 1.97862732 43.03662109 1.98071289 C41.76772537 1.97975616 40.49882965 1.97879944 39.19148254 1.97781372 C36.50400399 1.97713253 33.81661603 1.97848165 31.12915039 1.9831543 C27.69616879 1.98883418 24.26326567 1.98558198 20.83028698 1.97958183 C17.54489561 1.97508174 14.25951349 1.97824135 10.97412109 1.98071289 C9.13167061 1.97767654 9.13167061 1.97767654 7.2519989 1.97457886 C6.10093155 1.97773102 4.9498642 1.98088318 3.76391602 1.98413086 C2.25192879 1.98532425 2.25192879 1.98532425 0.70939636 1.98654175 C-2.32704522 2.11935126 -5.20880263 2.55470374 -8.19384766 3.11352539 C-8.19384766 2.45352539 -8.19384766 1.79352539 -8.19384766 1.11352539 C-5.40350505 -0.28164591 -3.12158793 -0.00602623 0 0 Z " fill="#DFE2EC" transform="translate(209.19384765625,209.886474609375)"/>
<path d="M0 0 C0.33 0.99 0.66 1.98 1 3 C0.07421875 4.796875 0.07421875 4.796875 -1.3125 6.75 C-3.78981162 10.46596743 -5.0059463 13.66231115 -6 18 C-7.32 18 -8.64 18 -10 18 C-10.44204604 13.5795396 -10.40259716 11.5751388 -7.8125 7.875 C-6.89383811 6.89859365 -5.95569108 5.94019338 -5 5 C-4.52304688 4.51015625 -4.04609375 4.0203125 -3.5546875 3.515625 C-2.38634105 2.32724975 -1.19535618 1.16120315 0 0 Z M-11 18 C-10.67 19.32 -10.34 20.64 -10 22 C-10.99 22.495 -10.99 22.495 -12 23 C-11.67 21.35 -11.34 19.7 -11 18 Z " fill="#DEE6E7" transform="translate(122,254)"/>
<path d="M0 0 C0.66 0 1.32 0 2 0 C3 3 3 3 2.21484375 4.8671875 C-1.41969247 10.58018939 -5.44892325 15.51510882 -12 18 C-12.99 18 -13.98 18 -15 18 C-14.505 16.515 -14.505 16.515 -14 15 C-13.071875 14.566875 -12.14375 14.13375 -11.1875 13.6875 C-7.41391687 11.68972069 -6.2952428 9.51937229 -4 6 C-1.75 5.125 -1.75 5.125 0 5 C0 3.35 0 1.7 0 0 Z " fill="#E1F2F9" transform="translate(430,419)"/>
<path d="M0 0 C1.5 1.3125 1.5 1.3125 3 3 C3 3.99 3 4.98 3 6 C3.66 6 4.32 6 5 6 C6.34409762 8.24416299 7.67529896 10.49442796 9 12.75 C9.3815625 13.38421875 9.763125 14.0184375 10.15625 14.671875 C12.17915652 18.13971476 13 19.89348254 13 24 C13.66 24 14.32 24 15 24 C15.33 25.65 15.66 27.3 16 29 C14.125 28.5 14.125 28.5 12 27 C11.33421813 24.93392852 10.93463079 22.91967218 10.58984375 20.77734375 C10.39519531 20.19082031 10.20054687 19.60429688 10 19 C9.01 18.67 8.02 18.34 7 18 C6.23347465 16.36696772 5.48013061 14.72500449 4.828125 13.04296875 C3.67146399 10.18950785 2.2187919 7.51084626 0.76953125 4.796875 C0 3 0 3 0 0 Z " fill="#D0DDF3" transform="translate(262,96)"/>
<path d="M0 0 C1.64087789 0.11492784 3.2857778 0.17632354 4.93041992 0.20532227 C6.43163643 0.2352401 6.43163643 0.2352401 7.96318054 0.26576233 C9.04138565 0.28247482 10.11959076 0.29918732 11.23046875 0.31640625 C12.88880486 0.3475779 12.88880486 0.3475779 14.5806427 0.37937927 C18.1161979 0.44482332 21.65182806 0.50373603 25.1875 0.5625 C27.58269008 0.6056901 29.97787255 0.64930454 32.37304688 0.69335938 C38.24861842 0.80049948 44.12426472 0.90227557 50 1 C50 1.33 50 1.66 50 2 C30.53 2 11.06 2 -9 2 C-5.96271914 -1.03728086 -4.06215635 -1.35405212 0 0 Z " fill="#DDE3EF" transform="translate(225,316)"/>
<path d="M0 0 C0.66 0 1.32 0 2 0 C2 1.32 2 2.64 2 4 C2.99 4 3.98 4 5 4 C5.33 2.68 5.66 1.36 6 0 C6.33 0.66 6.66 1.32 7 2 C6.67 2.99 6.34 3.98 6 5 C5.01 5 4.02 5 3 5 C2.896875 5.515625 2.79375 6.03125 2.6875 6.5625 C1.75736134 9.86026435 0.38604488 12.86633332 -1 16 C-2.20628008 13.66785852 -3.1654738 11.50357861 -4 9 C-3.67 8.01 -3.34 7.02 -3 6 C-2.34 6 -1.68 6 -1 6 C-0.67 4.02 -0.34 2.04 0 0 Z " fill="#E5ECF3" transform="translate(173,154)"/>
<path d="M0 0 C0 0.33 0 0.66 0 1 C-4.29 1 -8.58 1 -13 1 C-13 1.66 -13 2.32 -13 3 C-22.41002278 7.59225513 -22.41002278 7.59225513 -27 7 C-26.67 6.34 -26.34 5.68 -26 5 C-25.34 5 -24.68 5 -24 5 C-24 4.34 -24 3.68 -24 3 C-15.4715058 -0.38198908 -9.11303867 -1.17064726 0 0 Z " fill="#EBF2FD" transform="translate(244,74)"/>
<path d="M0 0 C0.33 0.99 0.66 1.98 1 3 C0.05988318 4.70116376 -0.94895617 6.36504293 -2 8 C-2.309375 8.825 -2.61875 9.65 -2.9375 10.5 C-4 13 -4 13 -6.0625 15.5625 C-8.1146579 17.79913315 -8.1146579 17.79913315 -8.5625 20.25 C-8.7790625 21.11625 -8.7790625 21.11625 -9 22 C-9.99 22.33 -10.98 22.66 -12 23 C-11.36650582 20.04973887 -10.41366171 17.62482811 -9.00390625 14.9609375 C-8.61009766 14.21585937 -8.21628906 13.47078125 -7.81054688 12.703125 C-7.19276367 11.55070312 -7.19276367 11.55070312 -6.5625 10.375 C-6.15451172 9.59898437 -5.74652344 8.82296875 -5.32617188 8.0234375 C-2.2585952 2.2585952 -2.2585952 2.2585952 0 0 Z " fill="#D9DFE2" transform="translate(51,382)"/>
<path d="M0 0 C22.62950403 -0.24130988 22.62950403 -0.24130988 29 1 C29.33 1.66 29.66 2.32 30 3 C22.74 3 15.48 3 8 3 C8 2.34 8 1.68 8 1 C5.36 1 2.72 1 0 1 C0 0.67 0 0.34 0 0 Z " fill="#D7DBDF" transform="translate(229,383)"/>
<path d="M0 0 C1 3 1 3 0.00390625 5.48046875 C-0.47175781 6.37378906 -0.94742188 7.26710938 -1.4375 8.1875 C-1.91058594 9.08855469 -2.38367188 9.98960937 -2.87109375 10.91796875 C-3.42990234 11.94857422 -3.42990234 11.94857422 -4 13 C-4.66 13 -5.32 13 -6 13 C-6.061875 13.66 -6.12375 14.32 -6.1875 15 C-7.32136497 19.18657836 -9.59631064 22.42550992 -12 26 C-12.33 25.34 -12.66 24.68 -13 24 C-12.05611249 21.75638241 -11.05935716 19.65289866 -9.9375 17.5 C-9.61966553 16.87722168 -9.30183105 16.25444336 -8.97436523 15.61279297 C-6.2142327 10.26816646 -3.20293757 5.09184947 0 0 Z " fill="#D6DCDE" transform="translate(81,327)"/>
<path d="M0 0 C0.33 0 0.66 0 1 0 C1.05390357 2.93774463 1.0936255 5.87450232 1.125 8.8125 C1.14175781 9.64587891 1.15851562 10.47925781 1.17578125 11.33789062 C1.18222656 12.14033203 1.18867187 12.94277344 1.1953125 13.76953125 C1.20578613 14.50792236 1.21625977 15.24631348 1.22705078 16.00708008 C1 18 1 18 -1 21 C-1.36644578 19.44033408 -1.71760862 17.87707349 -2.0625 16.3125 C-2.25972656 15.44238281 -2.45695312 14.57226562 -2.66015625 13.67578125 C-3.28214049 8.778549 -1.60109 4.58979133 0 0 Z " fill="#F0F2F7" transform="translate(38,402)"/>
<path d="M0 0 C4.26652402 3.7924658 6.89480975 7.67233976 9 13 C9 13.66 9 14.32 9 15 C9.66 15 10.32 15 11 15 C11.33 16.98 11.66 18.96 12 21 C11.01 20.67 10.02 20.34 9 20 C8.28050817 18.35544725 7.63028587 16.68076231 7 15 C6.18318733 13.51164671 5.34819253 12.0331964 4.5 10.5625 C2.5503746 7.12333778 1.07845467 3.82361202 0 0 Z " fill="#D0CFEE" transform="translate(283,134)"/>
<path d="M0 0 C0.66 0 1.32 0 2 0 C1.84699876 7.03805702 -1.55745359 11.69416401 -6 17 C-6.99 17.66 -7.98 18.32 -9 19 C-7.83232884 15.04788223 -6.5512185 12.21675376 -4 9 C-3.67 8.01 -3.34 7.02 -3 6 C-2.34 6 -1.68 6 -1 6 C-0.67 4.02 -0.34 2.04 0 0 Z " fill="#E7E9EB" transform="translate(185,133)"/>
<path d="M0 0 C0.99 0 1.98 0 3 0 C2.125 5.75 2.125 5.75 1 8 C0.34 8 -0.32 8 -1 8 C-1.12246094 8.57234375 -1.24492187 9.1446875 -1.37109375 9.734375 C-2.02762868 12.09953191 -2.93723512 14.07206797 -4.0625 16.25 C-4.42472656 16.95640625 -4.78695312 17.6628125 -5.16015625 18.390625 C-5.43730469 18.92171875 -5.71445313 19.4528125 -6 20 C-6.66 20 -7.32 20 -8 20 C-6.82436156 14.86994134 -5.00465951 11.24417644 -2.109375 6.8671875 C-0.77815394 4.62661121 -0.24268899 2.58868255 0 0 Z " fill="#CFD9E0" transform="translate(169,165)"/>
<path d="M0 0 C6.70518586 -0.19818283 12.65176798 -0.30844801 19 2 C19 2.66 19 3.32 19 4 C15.98968256 4.93423645 15.13349732 5.04449911 12 4 C12 3.34 12 2.68 12 2 C8.37 2 4.74 2 1 2 C0.67 1.34 0.34 0.68 0 0 Z " fill="#D7DCE1" transform="translate(249,235)"/>
<path d="M0 0 C0.66 0.33 1.32 0.66 2 1 C1.63648438 1.44988281 1.27296875 1.89976563 0.8984375 2.36328125 C-3.43099919 7.90273999 -6.76858171 13.76634203 -10 20 C-10.6875 18.3125 -10.6875 18.3125 -11 16 C-9.07855558 12.09965933 -6.38319617 8.6853325 -3.8125 5.1875 C-3.09707031 4.21167969 -2.38164062 3.23585938 -1.64453125 2.23046875 C-1.10183594 1.49441406 -0.55914062 0.75835937 0 0 Z " fill="#D3E0F3" transform="translate(218,83)"/>
<path d="M0 0 C2.66666667 1.33333333 5.33333333 2.66666667 8 4 C7.25 8.75 7.25 8.75 5 11 C5 10.01 5 9.02 5 8 C4.01 7.67 3.02 7.34 2 7 C2 5.68 2 4.36 2 3 C1.34 3 0.68 3 0 3 C0 2.01 0 1.02 0 0 Z " fill="#D9E7E5" transform="translate(355,264)"/>
<path d="M0 0 C0.33 1.32 0.66 2.64 1 4 C0.34 4 -0.32 4 -1 4 C-1.12375 4.763125 -1.2475 5.52625 -1.375 6.3125 C-2 9 -2 9 -4 12 C-4.66 12 -5.32 12 -6 12 C-6.375 8.8125 -6.375 8.8125 -6 5 C-4.18811972 2.8596502 -2.34198833 1.61011698 0 0 Z " fill="#DBE2E1" transform="translate(199,114)"/>
<path d="M0 0 C1.8871875 0.061875 1.8871875 0.061875 3.8125 0.125 C3.1525 0.785 2.4925 1.445 1.8125 2.125 C2.4725 2.785 3.1325 3.445 3.8125 4.125 C-0.6425 4.62 -0.6425 4.62 -5.1875 5.125 C-5.8475 4.135 -6.5075 3.145 -7.1875 2.125 C-4.09861478 0.06574319 -3.47814073 -0.1140374 0 0 Z " fill="#DBDDDF" transform="translate(218.1875,383.875)"/>
<path d="M0 0 C1.31767252 2.63534505 0.75847597 3.54582527 -0.125 6.3125 C-1.64558643 10.6974469 -3.46978531 13.04225256 -7 16 C-7.33 15.34 -7.66 14.68 -8 14 C-7.67 13.34 -7.34 12.68 -7 12 C-6.34 12 -5.68 12 -5 12 C-4.9175 11.319375 -4.835 10.63875 -4.75 9.9375 C-3.77667472 6.1253093 -2.04192545 3.35929671 0 0 Z " fill="#EBEEEF" transform="translate(75,332)"/>
<path d="M0 0 C0.33 1.32 0.66 2.64 1 4 C1.99 3.67 2.98 3.34 4 3 C2.375 9.75 2.375 9.75 -1 12 C-0.34 9.69 0.32 7.38 1 5 C0.34 5 -0.32 5 -1 5 C-1.103125 5.639375 -1.20625 6.27875 -1.3125 6.9375 C-1.539375 7.618125 -1.76625 8.29875 -2 9 C-2.99 9.33 -3.98 9.66 -5 10 C-3.66511872 6.40608886 -2.03977277 3.24509304 0 0 Z " fill="#E3EAEE" transform="translate(192,122)"/>
<path d="M0 0 C0.66 0 1.32 0 2 0 C1.39254603 4.85963179 -0.72758967 8.7405518 -3 13 C-3.66 13 -4.32 13 -5 13 C-4.67 10.36 -4.34 7.72 -4 5 C-3.01 4.67 -2.02 4.34 -1 4 C-0.26676204 1.98491642 -0.26676204 1.98491642 0 0 Z " fill="#D0DADF" transform="translate(191,127)"/>
<path d="M0 0 C0.99 0.33 1.98 0.66 3 1 C3 4.63 3 8.26 3 12 C2.01 12 1.02 12 0 12 C0 8.04 0 4.08 0 0 Z " fill="#D9DDE3" transform="translate(283,294)"/>
<path d="M0 0 C0.33 0 0.66 0 1 0 C0.67 2.31 0.34 4.62 0 7 C1.32 7.33 2.64 7.66 4 8 C2.68 9.32 1.36 10.64 0 12 C0 10.68 0 9.36 0 8 C-3.0745356 8.7763932 -3.0745356 8.7763932 -5 11 C-4.32902328 6.80639551 -2.1441606 3.59665648 0 0 Z " fill="#EAF1F0" transform="translate(105,278)"/>
<path d="M0 0 C3.96 0 7.92 0 12 0 C11.67 0.99 11.34 1.98 11 3 C7.04 3 3.08 3 -1 3 C-0.67 2.01 -0.34 1.02 0 0 Z " fill="#D8E2F2" transform="translate(231,75)"/>
<path d="M0 0 C2.67576692 1.00617682 3.7785108 1.54214546 5.046875 4.1640625 C5.27890625 4.97617187 5.5109375 5.78828125 5.75 6.625 C5.99234375 7.44226563 6.2346875 8.25953125 6.484375 9.1015625 C6.73960937 10.04128906 6.73960937 10.04128906 7 11 C6.34 11.66 5.68 12.32 5 13 C2.70620251 9.55930376 2 8.27709699 2 4 C1.34 4 0.68 4 0 4 C0 2.68 0 1.36 0 0 Z " fill="#E3E5E3" transform="translate(390,327)"/>
<path d="M0 0 C3.40458262 3.89095157 6.24177968 8.11365765 8 13 C7.67 13.66 7.34 14.32 7 15 C6.34 14.67 5.68 14.34 5 14 C5 12.68 5 11.36 5 10 C4.01 9.67 3.02 9.34 2 9 C0.29466783 5.67908998 0 3.81507216 0 0 Z " fill="#D2DCED" transform="translate(405,353)"/>
<path d="M0 0 C0 3.56229451 -0.76109009 4.41109679 -2.875 7.1875 C-3.40867188 7.90292969 -3.94234375 8.61835938 -4.4921875 9.35546875 C-4.98976562 9.89816406 -5.48734375 10.44085938 -6 11 C-6.66 11 -7.32 11 -8 11 C-7.875 8.25 -7.875 8.25 -7 5 C-4 2.6875 -4 2.6875 -1 1 C-0.67 0.67 -0.34 0.34 0 0 Z " fill="#E3E7E7" transform="translate(159,417)"/>
<path d="M0 0 C0.33 0.99 0.66 1.98 1 3 C0.02616054 4.68208635 -0.97695052 6.34738161 -2 8 C-2.2165625 9.3303125 -2.2165625 9.3303125 -2.4375 10.6875 C-3 13 -3 13 -5.0625 14.3125 C-6.0215625 14.6528125 -6.0215625 14.6528125 -7 15 C-5.45454854 9.52067211 -2.84456788 4.88570819 0 0 Z " fill="#D6DBE2" transform="translate(60,365)"/>
<path d="M0 0 C1.2077558 3.62326739 0.54311128 4.64146369 -1 8 C-1.66 8 -2.32 8 -3 8 C-3.66 9.65 -4.32 11.3 -5 13 C-6.04449911 9.86650268 -5.93423645 9.01031744 -5 6 C-4.34 6 -3.68 6 -3 6 C-2.67 4.68 -2.34 3.36 -2 2 C-1.34 2 -0.68 2 0 2 C0 1.34 0 0.68 0 0 Z " fill="#D8DBE9" transform="translate(129,241)"/>
<path d="M0 0 C0.66 0 1.32 0 2 0 C0.49087042 4.98012761 -2.55661849 8.24259942 -6 12 C-6.33 11.01 -6.66 10.02 -7 9 C-6.34 9 -5.68 9 -5 9 C-4.731875 8.2575 -4.46375 7.515 -4.1875 6.75 C-3.04723249 4.10938051 -1.90619694 2.14447156 0 0 Z " fill="#DFE7FA" transform="translate(226,246)"/>
<path d="M0 0 C0.33 1.32 0.66 2.64 1 4 C0.01 4 -0.98 4 -2 4 C-2.0825 4.53625 -2.165 5.0725 -2.25 5.625 C-3.26376098 8.8352431 -5.07160549 11.26292392 -7 14 C-8 11 -8 11 -7.109375 8.95703125 C-6.66078125 8.24933594 -6.2121875 7.54164063 -5.75 6.8125 C-5.31171875 6.09707031 -4.8734375 5.38164062 -4.421875 4.64453125 C-3.95265625 4.10183594 -3.4834375 3.55914062 -3 3 C-2.01 3 -1.02 3 0 3 C0 2.01 0 1.02 0 0 Z " fill="#DADFEF" transform="translate(188,137)"/>
<path d="M0 0 C1.98 0.99 1.98 0.99 4 2 C4 2.66 4 3.32 4 4 C4.66 4 5.32 4 6 4 C6 4.99 6 5.98 6 7 C6.66 7 7.32 7 8 7 C7.67 8.32 7.34 9.64 7 11 C6.67 10.01 6.34 9.02 6 8 C5.34 8 4.68 8 4 8 C0 2.58823529 0 2.58823529 0 0 Z " fill="#E1E7E8" transform="translate(315,420)"/>
<path d="M0 0 C0.66 0 1.32 0 2 0 C1.38909774 6.47556391 1.38909774 6.47556391 -0.4375 8.9375 C-2 10 -2 10 -4 10 C-3.67 8.68 -3.34 7.36 -3 6 C-2.34 6 -1.68 6 -1 6 C-0.67 4.02 -0.34 2.04 0 0 Z " fill="#EBEDF3" transform="translate(95,295)"/>
<path d="M0 0 C0.66 0 1.32 0 2 0 C2 3 2 3 0.25 4.8125 C-0.4925 5.534375 -1.235 6.25625 -2 7 C-3.36821051 8.97630407 -4.70951192 10.97209016 -6 13 C-6.66 12.67 -7.32 12.34 -8 12 C-6.71656721 9.99426318 -5.4239631 7.99563881 -4.125 6 C-3.76019531 5.42765625 -3.39539063 4.8553125 -3.01953125 4.265625 C-2.06525233 2.80818084 -1.03722413 1.39962775 0 0 Z " fill="#D3D9E5" transform="translate(259,254)"/>
<path d="M0 0 C1 3 1 3 0.00390625 5.26171875 C-0.47175781 6.06222656 -0.94742188 6.86273438 -1.4375 7.6875 C-2.14712891 8.89986328 -2.14712891 8.89986328 -2.87109375 10.13671875 C-3.24363281 10.75160156 -3.61617187 11.36648437 -4 12 C-4.66 12 -5.32 12 -6 12 C-5.67 10.35 -5.34 8.7 -5 7 C-4.34 7 -3.68 7 -3 7 C-2.67 5.35 -2.34 3.7 -2 2 C-1.34 2 -0.68 2 0 2 C0 1.34 0 0.68 0 0 Z " fill="#D6DBDC" transform="translate(141,219)"/>
<path d="M0 0 C0.66 0 1.32 0 2 0 C1.67 2.31 1.34 4.62 1 7 C0.34 7 -0.32 7 -1 7 C-1 7.66 -1 8.32 -1 9 C-1.99 9.33 -2.98 9.66 -4 10 C-2.66666667 6.66666667 -1.33333333 3.33333333 0 0 Z " fill="#E9EEEF" transform="translate(110,268)"/>
<path d="M0 0 C0.66 0 1.32 0 2 0 C1.125 6.75 1.125 6.75 0 9 C-0.99 9 -1.98 9 -3 9 C-3 8.01 -3 7.02 -3 6 C-2.34 6 -1.68 6 -1 6 C-0.67 4.02 -0.34 2.04 0 0 Z " fill="#E8EBE5" transform="translate(155,187)"/>
<path d="M0 0 C0.33 0.99 0.66 1.98 1 3 C-0.21484375 5.26171875 -0.21484375 5.26171875 -1.9375 7.6875 C-2.50339844 8.49574219 -3.06929688 9.30398438 -3.65234375 10.13671875 C-4.09707031 10.75160156 -4.54179688 11.36648438 -5 12 C-5.33 11.34 -5.66 10.68 -6 10 C-5.29296875 8.125 -5.29296875 8.125 -4.1875 6 C-3.83042969 5.29875 -3.47335938 4.5975 -3.10546875 3.875 C-2 2 -2 2 0 0 Z " fill="#D6DBDB" transform="translate(89,314)"/>
<path d="M0 0 C0.66 0.33 1.32 0.66 2 1 C2 3.31 2 5.62 2 8 C2.99 8.33 3.98 8.66 5 9 C3.35 8.67 1.7 8.34 0 8 C-0.79953138 4.71303767 -1.09658936 3.28976808 0 0 Z " fill="#E6EFF2" transform="translate(236,280)"/>
<path d="M0 0 C-5.625 4 -5.625 4 -9 4 C-8 1 -8 1 -6.1875 -0.25 C-3.66056586 -1.11637742 -2.47778006 -0.88492145 0 0 Z " fill="#E1EBF7" transform="translate(424,433)"/>
<path d="M0 0 C1.43791516 0.14168137 2.8753237 0.28851043 4.3125 0.4375 C5.11300781 0.51871094 5.91351563 0.59992188 6.73828125 0.68359375 C9 1 9 1 12 2 C12 2.66 12 3.32 12 4 C10.5608866 3.71640113 9.12374482 3.42278601 7.6875 3.125 C6.88699219 2.96257812 6.08648437 2.80015625 5.26171875 2.6328125 C3 2 3 2 0 0 Z " fill="#D9DEE4" transform="translate(264,387)"/>
<path d="M0 0 C-0.33 0.66 -0.66 1.32 -1 2 C-3.28515625 2.6328125 -3.28515625 2.6328125 -6.0625 3.125 C-6.98160156 3.29257812 -7.90070313 3.46015625 -8.84765625 3.6328125 C-9.91306641 3.81457031 -9.91306641 3.81457031 -11 4 C-9 1 -9 1 -7.1875 0.3125 C-4.76407022 -0.03370425 -2.44491162 -0.06791421 0 0 Z " fill="#D3D7DD" transform="translate(208,387)"/>
<path d="M0 0 C1 3 1 3 0.07421875 4.97265625 C-0.61220703 6.00712891 -0.61220703 6.00712891 -1.3125 7.0625 C-1.98732422 8.10083984 -1.98732422 8.10083984 -2.67578125 9.16015625 C-4 11 -4 11 -6 13 C-5.51675181 7.84535266 -2.81389239 4.18449681 0 0 Z " fill="#D2DCE2" transform="translate(122,254)"/>
<path d="M0 0 C0.66 0.33 1.32 0.66 2 1 C1.67 1.33 1.34 1.66 1 2 C0.63239269 4.32817964 0.29758419 6.6618385 0 9 C-1.65 9.33 -3.3 9.66 -5 10 C-3.35 6.7 -1.7 3.4 0 0 Z " fill="#E7F2F9" transform="translate(151,204)"/>
<path d="M0 0 C1.18851563 0.00902344 2.37703125 0.01804688 3.6015625 0.02734375 C4.51679688 0.03894531 5.43203125 0.05054688 6.375 0.0625 C6.375 0.3925 6.375 0.7225 6.375 1.0625 C1.425 1.7225 -3.525 2.3825 -8.625 3.0625 C-8.625 2.4025 -8.625 1.7425 -8.625 1.0625 C-5.74084117 -0.37957941 -3.20778472 -0.03144887 0 0 Z " fill="#D8DBE7" transform="translate(209.625,209.9375)"/>
<path d="M0 0 C4.875 4.75 4.875 4.75 6 7 C5.0625 9.125 5.0625 9.125 4 11 C3.71125 10.030625 3.4225 9.06125 3.125 8.0625 C2.35785318 4.89335797 2.35785318 4.89335797 0 4 C0 2.68 0 1.36 0 0 Z " fill="#DBE2F6" transform="translate(400,346)"/>
<path d="M0 0 C1 3 1 3 0.0625 5.1875 C-0.4634375 6.0846875 -0.4634375 6.0846875 -1 7 C-2.65 7 -4.3 7 -6 7 C-4.02 4.69 -2.04 2.38 0 0 Z " fill="#D7DEE6" transform="translate(282,308)"/>
<path d="M0 0 C1.32 0.33 2.64 0.66 4 1 C4.66 3.31 5.32 5.62 6 8 C5.01 8 4.02 8 3 8 C0 2.25 0 2.25 0 0 Z " fill="#C8E3F0" transform="translate(293,154)"/>
<path d="M0 0 C3.67230705 3.07999946 4.56802365 5.2482602 5 10 C3.5 8.625 3.5 8.625 2 7 C2 6.34 2 5.68 2 5 C1.34 5 0.68 5 0 5 C0 3.35 0 1.7 0 0 Z " fill="#D9E3E4" transform="translate(423,386)"/>
<path d="M0 0 C1.1446875 0.495 1.1446875 0.495 2.3125 1 C4.99069135 2.17436686 4.99069135 2.17436686 8 2 C7.34 3.32 6.68 4.64 6 6 C3.5625 5.25 3.5625 5.25 1 4 C0.1875 1.875 0.1875 1.875 0 0 Z " fill="#D6D6E4" transform="translate(195,233)"/>
<path d="M0 0 C0.268125 0.639375 0.53625 1.27875 0.8125 1.9375 C1.88667752 4.33131686 1.88667752 4.33131686 5 5 C4.67 5.99 4.34 6.98 4 8 C2.0625 7.1875 2.0625 7.1875 0 6 C-1 3 -1 3 0 0 Z " fill="#E6E6EF" transform="translate(196,228)"/>
<path d="M0 0 C0.99 0 1.98 0 3 0 C2.6875 2.875 2.6875 2.875 2 6 C1.01 6.66 0.02 7.32 -1 8 C-0.67 5.36 -0.34 2.72 0 0 Z " fill="#D5DBE1" transform="translate(202,105)"/>
<path d="M0 0 C2.79872437 2.52788007 4.45773019 4.20411134 5 8 C3.68 7.67 2.36 7.34 1 7 C0.67 4.69 0.34 2.38 0 0 Z " fill="#D6EFF3" transform="translate(396,338)"/>
<path d="M0 0 C1.32 0 2.64 0 4 0 C4 0.66 4 1.32 4 2 C6.64 2 9.28 2 12 2 C12 2.33 12 2.66 12 3 C8.37 3 4.74 3 1 3 C0.67 2.01 0.34 1.02 0 0 Z " fill="#DCE4EE" transform="translate(200,315)"/>
<path d="M0 0 C2.32947183 2.11770166 3.88750845 4.03335588 5 7 C4.67 7.99 4.34 8.98 4 10 C4 9.34 4 8.68 4 8 C3.34 8 2.68 8 2 8 C0.74335022 5.09399739 0 3.20395416 0 0 Z " fill="#D9EAFB" transform="translate(333,224)"/>
<path d="M0 0 C0.99 0 1.98 0 3 0 C2.125 5.75 2.125 5.75 1 8 C0.34 8 -0.32 8 -1 8 C-0.67 5.36 -0.34 2.72 0 0 Z " fill="#D8DDE9" transform="translate(169,165)"/>
<path d="M0 0 C0.33 1.32 0.66 2.64 1 4 C1.66 4 2.32 4 3 4 C3.33 5.65 3.66 7.3 4 9 C2.0625 8.375 2.0625 8.375 0 7 C-0.8125 3.9375 -0.8125 3.9375 -1 1 C-0.67 0.67 -0.34 0.34 0 0 Z " fill="#D0E6FC" transform="translate(274,116)"/>
<path d="M0 0 C2.91517292 1.07401108 4.77810176 1.77810176 7 4 C6.67 4.99 6.34 5.98 6 7 C1.125 2.25 1.125 2.25 0 0 Z " fill="#DFE4E9" transform="translate(42,425)"/>
<path d="M0 0 C3.2542015 2.83430453 4.5206753 4.68607774 5 9 C4.01 8.67 3.02 8.34 2 8 C0.5522078 5.10441559 0 3.25811062 0 0 Z " fill="#D3E2F9" transform="translate(375,300)"/>
<path d="M0 0 C0.99 1.32 1.98 2.64 3 4 C2.01 4.33 1.02 4.66 0 5 C-0.73323796 7.01508358 -0.73323796 7.01508358 -1 9 C-1.625 5.625 -1.625 5.625 -2 2 C-1.34 1.34 -0.68 0.68 0 0 Z " fill="#D2E1EA" transform="translate(239,279)"/>
<path d="M0 0 C3.2542015 2.83430453 4.5206753 4.68607774 5 9 C3.0625 7.875 3.0625 7.875 1 6 C0.25 2.8125 0.25 2.8125 0 0 Z " fill="#D8E9F7" transform="translate(345,246)"/>
<path d="M0 0 C2.18277634 2.18277634 3.56742037 4.27127689 5 7 C4.67 7.66 4.34 8.32 4 9 C3.01 8.67 2.02 8.34 1 8 C0.67 5.36 0.34 2.72 0 0 Z " fill="#E5FDFE" transform="translate(294,157)"/>
<path d="M0 0 C5.66153846 1.47692308 5.66153846 1.47692308 7.375 4.125 C7.684375 5.053125 7.684375 5.053125 8 6 C7.34 6 6.68 6 6 6 C5.67 5.34 5.34 4.68 5 4 C2.47266765 3.34444881 2.47266765 3.34444881 0 3 C0 2.01 0 1.02 0 0 Z " fill="#D3E4FC" transform="translate(245,78)"/>
<path d="M0 0 C2.1875 0.3125 2.1875 0.3125 4 1 C3.01 2.485 3.01 2.485 2 4 C0.35 3.67 -1.3 3.34 -3 3 C-1.75 1.4375 -1.75 1.4375 0 0 Z " fill="#ECEDEC" transform="translate(222,384)"/>
<path d="M0 0 C0.66 0.33 1.32 0.66 2 1 C2 1.66 2 2.32 2 3 C1.01 3.33 0.02 3.66 -1 4 C-0.67 2.68 -0.34 1.36 0 0 Z M-3 4 C-2.34 4.33 -1.68 4.66 -1 5 C-1 5.99 -1 6.98 -1 8 C-1.99 8.33 -2.98 8.66 -4 9 C-3.67 7.35 -3.34 5.7 -3 4 Z " fill="#EDEEF1" transform="translate(53,372)"/>
<path d="M0 0 C0.6875 1.75 0.6875 1.75 1 4 C-0.3125 6.25 -0.3125 6.25 -2 8 C-2.66 8 -3.32 8 -4 8 C-4 7.34 -4 6.68 -4 6 C-3.34 6 -2.68 6 -2 6 C-1.855625 5.195625 -1.71125 4.39125 -1.5625 3.5625 C-1 1 -1 1 0 0 Z " fill="#CDD8DC" transform="translate(197,118)"/>
</svg>
